<svg width="556" height="556" xmlns="http://www.w3.org/2000/svg" preserveAspectRatio="xMidYMid meet" version="1.0">

 <g>
  <title>Layer 1</title>
  <g id="svg_1" fill="#000000" transform="translate(0 556) scale(0.1 -0.1)">
   <path fill="#1d2127" id="svg_2" d="m0,2780l0,-2780l2780,0l2780,0l0,2780l0,2780l-2780,0l-2780,0l0,-2780zm5222,2561c29,-11 58,-38 83,-76c19,-28 20,-51 23,-418c3,-377 2,-389 -18,-422c-25,-40 -89,-69 -134,-60c-24,5 -123,98 -419,393c-214,213 -395,399 -403,414c-29,56 -10,127 45,161c23,14 73,17 413,17c213,0 397,-4 410,-9zm-3942,-1010c0,-5 -7,-14 -15,-21c-13,-10 -15,-9 -15,9c0,12 6,21 15,21c8,0 15,-4 15,-9zm278,-98c-59,-60 -148,-152 -199,-205c-51,-54 -96,-98 -101,-98c-4,0 -8,21 -8,47l0,48l157,157l158,158l50,0l50,0l-107,-107zm2161,-90c-107,-109 -443,-448 -747,-753l-551,-555l-28,27l-27,28l729,724l730,725l45,0l45,1l-196,-197zm561,189c0,-4 -377,-384 -838,-845l-838,-838l-24,26l-24,26l819,819l820,820l42,0c24,0 43,-3 43,-8zm-2408,-109c10,-9 18,-21 18,-27c0,-6 -144,-155 -320,-331l-320,-320l0,50l0,50l297,297c164,164 300,298 302,298c3,0 13,-7 23,-17zm2468,-170c0,-37 -25,-63 -774,-812c-769,-769 -775,-775 -795,-756c-12,10 -21,23 -21,29c0,15 1562,1576 1577,1576c8,0 13,-14 13,-37zm-2275,-23c17,-19 17,-21 -1,-42c-45,-53 -798,-808 -806,-808c-4,0 -8,21 -8,47l0,48l387,387c214,214 393,388 399,388c6,0 19,-9 29,-20zm190,-190c19,-21 17,-23 -190,-230c-115,-115 -212,-207 -217,-204c-4,3 -8,-1 -8,-8c0,-7 -133,-146 -295,-308l-295,-295l0,50l0,50l482,482c266,266 488,483 494,483c6,0 19,-9 29,-20zm2085,-162c0,-42 -2,-44 -292,-335c-161,-161 -296,-293 -300,-293c-5,0 -8,19 -8,42c0,43 1,44 292,335c161,161 296,293 300,293c5,0 8,-19 8,-42zm-1890,-47c0,-9 -90,-106 -200,-216c-210,-210 -213,-212 -244,-162c-9,15 21,50 196,224c205,204 208,206 228,188c11,-10 20,-25 20,-34zm172,-158c10,-9 18,-21 18,-27c0,-6 -92,-103 -205,-216l-204,-204l-26,24l-26,24l208,208c114,114 210,208 212,208c2,0 13,-7 23,-17zm1718,-170c0,-35 -15,-52 -297,-335l-298,-299l-3,47l-3,48l288,288c158,158 294,288 300,288c8,0 13,-14 13,-37zm-2500,-250l0,-48l-287,-287c-159,-159 -291,-288 -295,-288c-5,0 -8,21 -8,47l0,48l287,287c159,159 291,288 295,288c5,0 8,-21 8,-47zm2500,-125c0,-42 -2,-44 -292,-335c-161,-161 -296,-293 -300,-293c-5,0 -8,19 -8,42c0,43 1,44 292,335c161,161 296,293 300,293c5,0 8,-19 8,-42zm-2500,-251c0,-42 -1,-43 -295,-337l-295,-295l0,50l0,50l287,287c159,159 291,288 295,288c5,0 8,-19 8,-43zm2500,-124c0,-36 -14,-52 -298,-337l-297,-299l-3,46l-3,47l288,290c158,159 294,290 301,290c7,0 12,-14 12,-37zm-2500,-256c0,-42 -2,-44 -295,-337l-295,-295l0,55l0,55l287,287c158,158 290,285 295,282c4,-3 8,-24 8,-47zm2500,-119c0,-42 -2,-44 -292,-335c-161,-161 -296,-293 -300,-293c-5,0 -8,19 -8,43c0,42 0,43 293,335c161,160 296,292 300,292c4,0 7,-19 7,-42zm-2500,-251c0,-42 -1,-43 -295,-337l-295,-295l0,50l0,50l287,287c159,159 291,288 295,288c5,0 8,-19 8,-43zm2500,-126c0,-39 -8,-48 -253,-296l-254,-256l-49,3l-49,3l290,292c160,161 296,292 303,292c7,1 12,-13 12,-38zm-2500,-254c0,-40 -5,-47 -127,-169l-128,-128l-47,0c-27,0 -48,3 -48,6c0,12 335,342 342,338c4,-3 8,-24 8,-47zm2500,-118c0,-37 -7,-48 -67,-110c-65,-68 -67,-69 -117,-69l-51,0l111,110c61,61 114,110 117,110c4,0 7,-18 7,-41zm-3922,-203c15,-8 199,-187 409,-399c291,-294 383,-392 388,-417c11,-48 -2,-93 -36,-126l-30,-29l-377,-3c-403,-3 -428,-1 -483,45c-58,49 -59,57 -59,463c0,410 2,423 62,460c39,23 88,26 126,6z"/>
  </g>
 </g>
</svg>