<svg xmlns="http://www.w3.org/2000/svg" viewBox="0 0 64 64"><title>Artboard-10</title><g id="Box"><path d="M23.18,15l2-10H9a.999.999,0,0,0-.8574.4854L2.4338,15Z" style="fill:#232328"/><polygon points="36.78 5 27.219 5 25.22 15 38.78 15 36.78 5" style="fill:#232328"/><path d="M40.82,15H61.5662L55.8574,5.4854A.999.999,0,0,0,55,5H38.82Z" style="fill:#232328"/><path d="M32,25a1.0005,1.0005,0,0,1,.4473.1055L39,28.3818V17H25V28.3818l6.5527-3.2763A1.0005,1.0005,0,0,1,32,25Z" style="fill:#232328"/><path d="M50,45a3,3,0,0,0,6,0V42H50Z" style="fill:#232328"/><path d="M41,17V30a1,1,0,0,1-1.4473.8945L32,27.1182l-7.5527,3.7763A1,1,0,0,1,23,30V17H2V58a1,1,0,0,0,1,1H61a1,1,0,0,0,1-1V17ZM15,55H7a1,1,0,0,1,0-2h8a1,1,0,0,1,0,2Zm12-4H7a1,1,0,0,1,0-2H27a1,1,0,0,1,0,2Zm31-6a5.0083,5.0083,0,0,1-4,4.8989V53h2a1,1,0,0,1,0,2H50a1,1,0,0,1,0-2h2V49.8989A5.0083,5.0083,0,0,1,48,45V41a1,1,0,0,1,1-1h8a1,1,0,0,1,1,1Z" style="fill:#232328"/></g></svg>