<svg xmlns="http://www.w3.org/2000/svg" viewBox="0 0 512 512"><path d="M348.572 212.621a5.5 5.5 0 0 0-5.5 5.5V406.15h-35.746a45.879 45.879 0 0 1-45.826-45.808V171.895a5.5 5.5 0 1 0-11 0v188.399l-.002.029.001.029a45.879 45.879 0 0 1-45.826 45.798h-35.747V218.121a5.5 5.5 0 0 0-11 0V411.65a5.5 5.5 0 0 0 5.5 5.5h41.247a56.896 56.896 0 0 0 51.326-32.459 56.896 56.896 0 0 0 51.327 32.459h41.246a5.5 5.5 0 0 0 5.5-5.5V218.121a5.5 5.5 0 0 0-5.5-5.5z"/><path d="M453.288 216.936 350.841 114.495h-24.91l-19.575-18.189a5.499 5.499 0 0 0-7.481.024l-42.515 39.703-42.515-39.702a5.5 5.5 0 0 0-7.482-.025l-19.575 18.189H161.15L58.713 216.936a5.5 5.5 0 0 0 0 7.778l61.69 61.69a5.5 5.5 0 0 0 7.779 0l23.428-23.433a5.5 5.5 0 0 0-7.779-7.778l-19.54 19.544-53.911-53.912 95.325-95.33h24.51l37.89 49.733a5.5 5.5 0 0 0 8.58.212l19.675-23.347 19.675 23.347a5.502 5.502 0 0 0 4.206 1.956c.045 0 .09 0 .136-.002a5.502 5.502 0 0 0 4.24-2.165l37.887-49.734h23.791l95.325 95.33-53.913 53.912-19.538-19.543a5.5 5.5 0 0 0-7.78 7.777l23.428 23.433a5.5 5.5 0 0 0 7.779 0l61.691-61.69a5.5 5.5 0 0 0 .001-7.778zm-220.593-53.832-34.061-44.71 11.433-10.54 38.72 36.157zm47.33 0-16.091-19.093 38.72-36.158 11.432 10.54z"/></svg>