<svg xmlns="http://www.w3.org/2000/svg" viewBox="0 0 64 64"><g data-name="Dinner Restaurant"><path style="fill:#1b1b1e" d="M6 33.998h7v6H6zM47 23.998H17a3 3 0 0 0-3 3v2h36v-2a3 3 0 0 0-3-3zM14 54.998v.02a1 1 0 0 0 1 1 5.27 5.27 0 0 0 3.42-1.207 3.462 3.462 0 0 1 4.503 0 5.44 5.44 0 0 0 6.837-.001 3.455 3.455 0 0 1 4.495 0 5.434 5.434 0 0 0 6.834 0 3.453 3.453 0 0 1 4.494 0 5.26 5.26 0 0 0 3.42 1.209 1.015 1.015 0 0 0 .997-1.02v-24H14zM23 21.998h18v-2a.997.997 0 0 0-1-1H24a.997.997 0 0 0-1 1zM35.982 12.251c.006-.09.018-.178.018-.27a4 4 0 0 0-8 0c0 .093.012.18.018.27A6.984 6.984 0 0 0 25.08 17h13.84a6.984 6.984 0 0 0-2.938-4.748zM32 9.981a2.004 2.004 0 0 1 1.855 1.25 7.003 7.003 0 0 0-3.71 0A2.004 2.004 0 0 1 32 9.981zM22 10.998h-6a1 1 0 0 0-1 1v2h8v-2a1 1 0 0 0-1-1zM18 19.855v2.144h2v-2.144a3.994 3.994 0 0 0 3-3.856h-8a3.994 3.994 0 0 0 3 3.856zM48 10.998h-6a1 1 0 0 0-1 1v2h8v-2a1 1 0 0 0-1-1zM44 19.855v2.144h2v-2.144a3.994 3.994 0 0 0 3-3.856h-8a3.994 3.994 0 0 0 3 3.856zM1 13.998a1 1 0 0 0-1 1v40a1 1 0 0 0 1 1h3a1 1 0 0 0 1-1v-37a4 4 0 0 0-4-4zM51 33.999h7v6h-7zM63 13.998a4 4 0 0 0-4 4v37a1 1 0 0 0 1 1h3a1 1 0 0 0 1-1v-40a1 1 0 0 0-1-1z"/></g></svg>