<svg xmlns="http://www.w3.org/2000/svg" width="128" height="128" xml:space="preserve"><path fill="#282D33" d="M54.472 128H13.376V47.728c0-8.412 4.853-15.869 12.477-19.363V0h18.141v28.365c7.625 3.496 12.478 10.954 12.478 19.363v6.134h-4v-6.134c0-7.203-4.395-13.55-11.196-16.17l-1.281-.493V4H29.854v27.065l-1.282.494c-6.801 2.618-11.195 8.964-11.195 16.169V124h37.096v4z"/><path fill="#282D33" d="M24.177 11.123h21.49v4h-21.49zM44.342 109.302H23.287v-58.79h21.055v4H27.287v50.79h17.055zM111.309 77.022 98.707 58.38H62.503v-4H99.77l1.656.88 13.197 19.522z"/><path fill="#282D33" d="M112.76 78.896H75.486v-4h29.969l-13.666-8.089 2.037-3.442 19.951 11.811z"/><path fill="#282D33" d="M114.564 128H84.783V74.896h29.781V128zm-25.781-4h21.781V78.896H88.783V124z"/><path fill="#282D33" d="M88.785 128H47.52V74.896h41.266V128zm-37.265-4h33.266V78.896H51.52V124zM101.77 58.38H60.503V44.125h41.266V58.38zm-37.266-4H97.77v-6.255H64.504v6.255z"/><path fill="#282D33" d="m87.969 77.012-3.293-2.272 11.283-16.36H63.554l-12.85 18.632-3.293-2.272 13.446-19.495 1.646-.865H99.77l1.646 3.136z"/><g><path fill="#282D33" d="M67.713 111.109c-5.802 0-10.523-4.686-10.523-10.444s4.721-10.444 10.523-10.444c5.805 0 10.527 4.686 10.527 10.444s-4.722 10.444-10.527 10.444zm0-16.888c-3.597 0-6.523 2.891-6.523 6.444s2.927 6.444 6.523 6.444c3.6 0 6.527-2.891 6.527-6.444s-2.927-6.444-6.527-6.444z"/></g><g><path fill="#282D33" d="M68.703 11.042h4v17.192h-4z"/><path fill="#282D33" d="M62.026 17.638h17.353v4H62.026z"/></g></svg>