<svg xmlns="http://www.w3.org/2000/svg" viewBox="0 0 492 492" style="enable-background:new 0 0 492 492" xml:space="preserve"><path style="fill-rule:evenodd;clip-rule:evenodd;fill:#212121" d="M326.202 399.069a84.869 84.869 0 0 1-44.856-12.792l-80.16-49.776a3.662 3.662 0 0 1-.384-.264c-4.368-3.192-7.056-7.416-7.776-12.168-.912-6 1.632-11.904 6.624-15.408 4.392-3.048 14.304-6.768 31.344 2.664.624.336 2.976 1.824 16.008 10.032 8.808 5.544 22.104 13.92 39.768 25.032 2.688 1.704 3.504 5.256 1.8 7.944-1.704 2.688-5.256 3.504-7.944 1.8-17.664-11.112-30.96-19.488-39.768-25.032-9.168-5.784-14.736-9.288-15.48-9.72-6.432-3.552-14.808-6.264-19.128-3.264-1.416.984-2.088 2.52-1.824 4.2.096.624.384 2.496 3.048 4.512l79.944 49.656a73.422 73.422 0 0 0 38.784 11.064h.024l63.864-.024a5.746 5.746 0 0 1 5.76 5.76 5.746 5.746 0 0 1-5.76 5.76l-63.888.024z"/><path style="fill-rule:evenodd;clip-rule:evenodd;fill:#212121" d="M334.938 367.869H296.85a19.128 19.128 0 0 1-19.152-18.264c-.24-5.232 1.632-10.248 5.28-14.064 3.648-3.816 8.784-6.024 14.064-6.024h47.064c7.776-.072 31.296-.264 46.512 15.336a44.499 44.499 0 0 1 4.104 4.872 5.736 5.736 0 0 1-1.272 8.04 5.736 5.736 0 0 1-8.04-1.272 36.878 36.878 0 0 0-3.048-3.624c-4.824-4.968-11.52-8.4-19.872-10.248-7.68-1.704-15.144-1.632-18.312-1.608h-47.136a7.857 7.857 0 0 0-5.736 2.448 7.455 7.455 0 0 0-2.112 5.568c.192 4.08 3.552 7.296 7.632 7.296h38.088c3.192 0 5.76 2.568 5.76 5.76s-2.544 5.784-5.736 5.784z"/><path style="fill-rule:evenodd;clip-rule:evenodd;fill:#212121" d="M432.306 404.445H390.09a5.787 5.787 0 0 1-5.784-5.784v-56.808a5.787 5.787 0 0 1 5.784-5.784h42.216c3.192 0 5.784 2.592 5.784 5.784s-2.568 5.76-5.76 5.76c-.12 0-.264 0-.384-.024H395.85v45.312h36.096c.12 0 .264-.024.384-.024 3.192 0 5.76 2.568 5.76 5.76s-2.592 5.808-5.784 5.808z"/><g><path style="fill-rule:evenodd;clip-rule:evenodd;fill:#212121" d="M232.506 236.589c-1.44 0-2.928-.192-4.44-.552-.192-.048-.384-.096-.576-.168l-65.976-23.64c-12.336-4.056-23.304-11.448-31.656-21.408L96.69 151.365c-2.04-2.424-1.728-6.072.696-8.112s6.072-1.728 8.112.696l33.168 39.48c7.008 8.328 16.152 14.52 26.496 17.88.048.024.096.024.144.048l65.76 23.544c2.112.456 3.072-.12 3.432-.36.48-.288 1.248-.96 1.128-2.256-.216-2.328-3.288-6.144-11.28-9.192-.288-.12-.528-.216-.984-.432-10.464-4.92-29.04-11.208-42.768-15.6-3.024-.96-4.704-4.224-3.72-7.248.984-3.024 4.224-4.704 7.248-3.72 14.064 4.512 33.144 10.968 44.16 16.152.12.048.216.096.312.144 15.144 5.832 18.12 14.328 18.528 18.864.48 5.328-2.04 10.368-6.6 13.152-2.424 1.44-5.136 2.184-8.016 2.184zm-4.056-34.248c.024 0 .024 0 0 0 .024 0 .024 0 0 0z"/><path style="fill-rule:evenodd;clip-rule:evenodd;fill:#212121" d="M177.09 198.693c-4.728 0-9.432-2.016-12.696-5.928l-19.8-23.544c-2.04-2.424-1.728-6.072.696-8.112s6.072-1.728 8.112.696l19.8 23.544c1.752 2.064 4.8 2.424 6.96.768 2.472-1.896 2.04-5.4.36-7.872-5.76-8.424-23.784-28.272-23.976-28.464-7.464-8.184-20.568-18.744-40.584-22.56-3.12-.6-5.184-3.6-4.584-6.72s3.6-5.184 6.72-4.584c23.136 4.392 38.304 16.608 46.944 26.112.768.84 18.768 20.64 24.984 29.736 5.448 7.992 4.2 18.096-2.88 23.52a16.467 16.467 0 0 1-10.056 3.408z"/><g><path style="fill-rule:evenodd;clip-rule:evenodd;fill:#212121" d="M97.171 158.829c-.144 0-.312 0-.456-.024-.744-.072-1.488-.264-2.136-.6l-36.96-18.432c-2.856-1.416-4.008-4.872-2.568-7.728s4.872-4.008 7.728-2.568l32.304 16.128 17.376-27.576-39.744-17.976c-2.904-1.32-4.176-4.728-2.88-7.632 1.32-2.904 4.728-4.176 7.632-2.88l45.792 20.688c.816.36 1.536.936 2.112 1.632a5.767 5.767 0 0 1 .624 6.336 4.227 4.227 0 0 1-.336.552l-23.568 37.392c-.312.48-.672.912-1.104 1.296a5.987 5.987 0 0 1-3.816 1.392z"/></g></g><g><path style="fill-rule:evenodd;clip-rule:evenodd;fill:#212121" d="M288.45 293.613a5.778 5.778 0 0 1-5.568-4.296l-13.488-51.024c-4.224-16.008 5.352-32.472 21.336-36.696 7.752-2.04 15.84-.96 22.776 3.072 6.504 3.792 11.256 9.744 13.512 16.872 15.552-3.312 31.176 6.168 35.28 21.696 2.04 7.752.96 15.84-3.072 22.776s-10.512 11.88-18.264 13.92l-51.024 13.488a5.393 5.393 0 0 1-1.488.192zm10.008-81.48a18.86 18.86 0 0 0-4.752.624c-9.864 2.616-15.768 12.744-13.152 22.608l12.024 45.456 45.456-12.024c4.776-1.272 8.784-4.32 11.256-8.592a18.312 18.312 0 0 0 1.896-14.04c-2.616-9.864-12.744-15.768-22.608-13.152l-4.128 1.08c-3.072.816-6.216-1.032-7.032-4.104l-1.08-4.128c-1.272-4.776-4.32-8.784-8.592-11.256a18.821 18.821 0 0 0-9.288-2.472z"/></g></svg>