<svg xmlns="http://www.w3.org/2000/svg" xml:space="preserve" width="2048" height="2048" style="shape-rendering:geometricPrecision;text-rendering:geometricPrecision;image-rendering:optimizeQuality;fill-rule:evenodd;clip-rule:evenodd"><defs><style>.fil0{fill:#212121;fill-rule:nonzero}</style></defs><g id="Layer_x0020_1"><path class="fil0" d="M327.861 699.7c20.784 3.324 206.326 24.816 528.421-203.724l18.5 26-18.518-26.098c14.259-10.116 33.96-6.901 44.281 7.122 21.794 25.691 275.629 330.742 83.608 383.726l-8.5-30.75 8.512 30.847a31.924 31.924 0 0 1-11.486 1.02c-48.15-.186-684.68-5.47-684.68-157.117 0-17.672 14.328-32 32-32 2.713 0 5.346.338 7.862.974zm541.056-134.766C638.94 722.553 471.666 758.157 383.98 764.044c119.583 56.326 536.625 59.823 586.674 60.041 76.593-27.135-51.984-197.543-101.737-259.152z"/><path class="fil0" d="M1664.02 764.044c-87.686-5.888-254.96-41.491-484.937-199.11-49.753 61.609-178.33 232.016-101.737 259.152 50.05-.219 467.091-3.716 586.674-60.041zm-490.802-242.068 18.5-26c322.095 228.54 507.637 207.047 528.42 203.724a32.06 32.06 0 0 1 7.862-.974c17.673 0 32 14.328 32 32 0 151.649-636.53 156.932-684.68 157.118-3.754.35-7.634.042-11.485-1.02l8.512-30.848-8.5 30.75C871.824 833.742 1125.66 528.691 1147.453 503c10.322-14.023 30.023-17.238 44.281-7.122l-18.517 26.098zM1024 255.999c37.655 0 71.75 15.266 96.43 39.946 24.68 24.68 39.946 58.774 39.946 96.429s-15.266 71.75-39.946 96.43c-24.68 24.68-58.775 39.946-96.43 39.946-37.655 0-71.75-15.266-96.43-39.946-24.68-24.68-39.946-58.775-39.946-96.43 0-37.655 15.266-71.749 39.946-96.429C952.25 271.265 986.345 256 1024 256zm51.18 85.197C1062.085 328.1 1043.989 320 1024 320s-38.085 8.1-51.18 21.194c-13.095 13.095-21.195 31.19-21.195 51.179s8.1 38.085 21.195 51.18c13.095 13.094 31.191 21.194 51.18 21.194s38.085-8.1 51.18-21.194c13.094-13.095 21.194-31.191 21.194-51.18 0-19.99-8.1-38.084-21.194-51.179zM920.495 1001.53c17.604-.207 31.707-14.647 31.5-32.251-.207-17.605-14.647-31.707-32.251-31.5-246.901 3.066-335.758 24.01-335.27 63.469.483 38.79 75.24 64.975 172.887 99.169 47.296 16.562 100.778 35.292 152.86 56.349 194.847 78.777 245.152 123.246 231.91 155.999-10.229 25.3-54.022 53.613-102.237 84.784-29.36 18.98-60.168 38.899-87.077 60.278-94.305 74.923-155.268 170.83-35.127 322.047 10.976 13.807 31.069 16.1 44.876 5.125 13.807-10.976 16.1-31.07 5.125-44.876-86.807-109.26-42.996-178.371 24.877-232.295 26.209-20.823 54.687-39.235 81.826-56.78 57.244-37.007 109.236-70.621 126.989-114.533 27.85-68.881-26.947-141.78-267.411-239-52.753-21.329-107.337-40.445-155.61-57.349-73.747-25.826-130.061-33.743-130.134-39.67-.036-2.936 72.242 3.518 272.269 1.034z"/><path class="fil0" d="M1128.26 937.781c-17.604-.207-32.044 13.896-32.251 31.5-.207 17.604 13.896 32.044 31.5 32.251 200.027 2.484 272.305-3.97 272.269-1.033-.073 5.927-56.387 13.843-130.135 39.67-48.272 16.903-102.856 36.02-155.61 57.348-240.463 97.22-295.26 170.119-267.41 239 17.753 43.912 69.744 77.526 126.989 114.534 27.14 17.544 55.617 35.956 81.826 56.78 67.873 53.922 111.684 123.033 24.877 232.294-10.976 13.807-8.682 33.9 5.125 44.876 13.807 10.976 33.9 8.682 44.876-5.125 120.14-151.217 59.178-247.123-35.127-322.047-26.91-21.379-57.717-41.297-87.077-60.277-48.216-31.172-92.01-59.485-102.237-84.785-13.243-32.753 37.063-77.221 231.91-155.999 52.082-21.056 105.563-39.786 152.86-56.349 97.646-34.194 172.404-60.38 172.886-99.169.489-39.46-88.368-60.403-335.27-63.469z"/><path class="fil0" d="M1056 531.137c0-17.673-14.328-32-32-32-17.674 0-32.002 14.327-32.002 32v1141.44c0 17.673 14.328 32 32.001 32s32.001-14.327 32.001-32V531.137z"/></g><path style="fill:none" d="M0 0h2048v2048H0z"/></svg>