<svg xmlns="http://www.w3.org/2000/svg" viewBox="0 0 48 48"><defs><style>.cls-1{fill:#201602;}</style></defs><title>Asset 17ldpi</title><g id="Layer_2" data-name="Layer 2"><g id="layer_1-2" data-name="layer 1"><path class="cls-1" d="M38,48A10,10,0,1,1,48,38,10,10,0,0,1,38,48Zm0-18a8,8,0,1,0,8,8A8,8,0,0,0,38,30Z"/><rect class="cls-1" x="33" y="37" width="10" height="2"/><rect class="cls-1" x="37" y="33" width="2" height="10"/><path class="cls-1" d="M20,40A20,20,0,1,1,37.56,29.58l-1.75-1a18,18,0,1,0-7.19,7.19l1,1.75A20,20,0,0,1,20,40Z"/><path class="cls-1" d="M20,33A13,13,0,1,1,33,20,13,13,0,0,1,20,33ZM20,9A11,11,0,1,0,31,20,11,11,0,0,0,20,9Z"/><path class="cls-1" d="M20,27a4,4,0,0,1-4-4h2a2,2,0,1,0,2-2,4,4,0,1,1,4-4H22a2,2,0,1,0-2,2,4,4,0,0,1,0,8Z"/><rect class="cls-1" x="19" y="26" width="2" height="3"/><rect class="cls-1" x="19" y="11" width="2" height="3"/><rect class="cls-1" x="26" y="19" width="2" height="2"/><rect class="cls-1" x="12" y="19" width="2" height="2"/><rect class="cls-1" x="19" y="34" width="2" height="3"/><rect class="cls-1" x="19" y="3" width="2" height="3"/><rect class="cls-1" x="3" y="19" width="3" height="2"/><rect class="cls-1" x="34" y="19" width="3" height="2"/><rect class="cls-1" x="8.04" y="7.54" width="2" height="3" transform="translate(-3.74 9.04) rotate(-45.01)"/><rect class="cls-1" x="7.54" y="29.96" width="3" height="2" transform="translate(-19.24 15.46) rotate(-45)"/><rect class="cls-1" x="29.46" y="8.04" width="3" height="2" transform="translate(2.68 24.54) rotate(-45)"/></g></g></svg>