<svg xmlns="http://www.w3.org/2000/svg" width="128" height="128" xml:space="preserve"><path fill="#282D33" d="M60.996 128H40.313v-14.021h4V124h12.683v-10.021h4zM104.367 128H83.686v-14.534h4V124h12.681v-14.492h4zM26.966 45.37h-4V21.783l1.982-.018c.139-.01.244-.016.351-.016 6.002 0 11.792 2.497 15.882 6.849l-2.915 2.739c-2.958-3.147-7.005-5.104-11.3-5.51V45.37z"/><path fill="#282D33" d="M83.018 116.786h-29.36a42.35 42.35 0 0 1-12.417-1.849C30.489 111.645 21.464 104.13 16.3 94.22h-5.94l-1.958-2.41.985-4.71H4.948l-2-2V62.011l2-2h9.074c4.118-11.487 13.335-20.802 24.913-25.085l1.388 3.752c-10.895 4.03-19.478 12.979-22.959 23.938l-1.906 1.395h-8.51V83.1h4.901l1.958 2.41-.986 4.711h4.712l1.801 1.131c4.571 9.468 12.982 16.671 23.077 19.762a38.386 38.386 0 0 0 11.247 1.673h29.36c1.016 0 2.039-.04 3.041-.119a38.111 38.111 0 0 0 15.693-4.749c11.904-6.671 19.301-19.205 19.301-32.713v-1.319c0-11.655-5.342-22.459-14.652-29.642l2.443-3.167c10.301 7.946 16.209 19.905 16.209 32.809v1.319c0 14.953-8.18 28.825-21.346 36.202a42.017 42.017 0 0 1-8.453 3.588 42.28 42.28 0 0 1-8.883 1.66c-1.105.086-2.234.13-3.353.13z"/><path fill="#282D33" d="M100.418 51.588a38.154 38.154 0 0 0-7.648-3.248 38.402 38.402 0 0 0-11.088-1.623H70.447v-4h11.234a42.42 42.42 0 0 1 12.239 1.792c2.93.88 5.773 2.087 8.453 3.588l-1.955 3.491zM57.186 32.304h12.012v4H57.186zM36.974 70.587h-4c0-2.172-1.797-3.938-4.005-3.938-2.209 0-4.006 1.767-4.006 3.938h-4c0-4.377 3.591-7.938 8.006-7.938 4.413-.001 8.005 3.561 8.005 7.938z"/><path fill="#282D33" d="M57.353 56.095H37.646V21.783l1.982-.018c.14-.01.245-.016.351-.016 11.956 0 21.684 9.627 21.685 21.461a21.2 21.2 0 0 1-3.715 12.014l-.596.871zm-15.707-4h13.56a17.207 17.207 0 0 0 2.458-8.885c-.001-9.073-7.045-16.552-16.018-17.384v26.269zM58.33 0h4v16.492h-4z"/><path fill="#282D33" d="M51.988 6.246H68.67v4H51.988zM90.221 47.145c-9.076 0-16.459-7.311-16.459-16.296s7.383-16.296 16.459-16.296 16.461 7.311 16.461 16.296-7.385 16.296-16.461 16.296zm0-28.592c-6.871 0-12.459 5.516-12.459 12.296s5.588 12.296 12.459 12.296 12.461-5.516 12.461-12.296-5.59-12.296-12.461-12.296z"/><path fill="#282D33" d="M88.221 26.067h4v9.565h-4z"/></svg>