<svg xmlns="http://www.w3.org/2000/svg" viewBox="0 0 55.88 63.99"><g data-name="Layer 2"><path d="M55.67 27.73a1 1 0 0 0-.16-1.38L41.59 14.88a1 1 0 0 0-.64-.23H13.86a1 1 0 0 0-.67.25L.33 26.37a1 1 0 0 0-.14 1.34l26.42 35.88a1 1 0 0 0 1.56 0zm-40 .39 9 29.57L3 28.12zm15.12-11.47 5.78 9.47H18.25L24 16.65zm22.07 11.47L30 58l9.1-29.88zm-15.86 0-9.6 31.45-9.6-31.45zm15.09-2H38.92l-5.78-9.47h7.46zm-37.85-9.47h7.44l-5.78 9.47H3.62zM27.42 8.13a1 1 0 0 0 1-1V1a1 1 0 0 0-2 0v6.13a1 1 0 0 0 1 1zM18.47 8.74a1 1 0 0 0 1.62-1.18l-3.86-5.31a1 1 0 1 0-1.62 1.18zM35.16 9.15a1 1 0 0 0 .84-.41l3.86-5.31a1 1 0 1 0-1.62-1.18l-3.89 5.31a1 1 0 0 0 .81 1.59z"/></g></svg>