<svg data-name="Layer 1" xmlns="http://www.w3.org/2000/svg" viewBox="0 0 48 48"><path d="M42.11 43.63H5.89a4.31 4.31 0 0 1-4.31-4.3v-17.4a1 1 0 0 1 2 0v17.4a2.31 2.31 0 0 0 2.31 2.3h36.22a2.31 2.31 0 0 0 2.31-2.3v-17.4a1 1 0 1 1 2 0v17.4a4.31 4.31 0 0 1-4.31 4.3z"/><path d="M24 30.61a1 1 0 0 1-.34-.06L2.22 22.86A1 1 0 1 1 2.9 21l21.44 7.69a1 1 0 0 1-.34 1.92z"/><path d="M24 30.61a1 1 0 0 1-.34-1.94L45.1 21a1 1 0 1 1 .68 1.88l-21.44 7.67a1 1 0 0 1-.34.06zM2.56 22.92A1 1 0 0 1 2 21.13L9.85 15a1 1 0 1 1 1.22 1.58l-7.9 6.1a1 1 0 0 1-.61.24zM19 10.26a1 1 0 0 1-.61-1.79l5-3.9a1 1 0 0 1 1.22 1.59l-5 3.89a1 1 0 0 1-.61.21z"/><path d="M45.44 22.92a1 1 0 0 1-.61-.21l-7.9-6.1A1 1 0 1 1 38.15 15l7.9 6.1a1 1 0 0 1-.61 1.79zM29 10.26a1 1 0 0 1-.61-.21l-5-3.89a1 1 0 0 1 1.22-1.59l5 3.9a1 1 0 0 1-.61 1.79z"/><path d="M37.54 25.76a1 1 0 0 1-1-1v-14.5H11.46v14.5a1 1 0 0 1-2 0V8.26h29.08v16.5a1 1 0 0 1-1 1z"/><path d="M17.24 19.23c-2.21 0-3.94-1.32-3.94-3s1.73-3 3.94-3c2 0 3.68 1.12 3.91 2.65a1 1 0 0 1-2 .31c-.07-.46-.89-1-1.94-1s-1.94.54-1.94 1 .76 1 1.94 1a1 1 0 0 1 0 2z"/><path d="M17.24 23.25c-2 0-3.69-1.12-3.91-2.66a1 1 0 1 1 2-.29c0 .39.77.95 1.93.95s1.94-.6 1.94-1-.76-1-1.94-1a1 1 0 0 1 0-2c2.21 0 3.94 1.32 3.94 3s-1.75 3-3.96 3z"/><path d="M17.24 25.47a1 1 0 0 1-1-1V12a1 1 0 1 1 2 0v12.47a1 1 0 0 1-1 1zM34.72 14.8h-9.79a1 1 0 0 1 0-2h9.79a1 1 0 0 1 0 2zM34.72 19h-9.79a1 1 0 0 1 0-2h9.79a1 1 0 0 1 0 2zM34.72 23.26h-9.79a1 1 0 0 1 0-2h9.79a1 1 0 0 1 0 2z"/></svg>