<svg xmlns="http://www.w3.org/2000/svg" viewBox="0 0 32 32"><defs><style>.cls-1{fill:#231f20}</style></defs><g id="train"><path class="cls-1" d="M26.91 28.59 26.19 27a1 1 0 0 0 .81-1 1 1 0 0 0-1-1h-.68l-.45-1H25a1 1 0 0 0 0-2h-1l-.46-1A2.83 2.83 0 0 0 26 18.16V6.06c0-.03 0 0 0 0a.8.8 0 0 0 0-.15A4.14 4.14 0 0 0 21.85 2H16a1 1 0 0 0 0 2h5.85a2.14 2.14 0 0 1 1.81 1H8.34a2.14 2.14 0 0 1 1.81-1H12a1 1 0 0 0 0-2h-1.85A4.14 4.14 0 0 0 6 5.85.8.8 0 0 0 6 6v12.1A2.83 2.83 0 0 0 8.48 21L8 22H7a1 1 0 0 0 0 2h.13l-.45 1H6a1 1 0 0 0-1 1 1 1 0 0 0 .81 1l-.72 1.63a1 1 0 0 0 .5 1.32A1 1 0 0 0 6 30a1 1 0 0 0 .91-.59L8 27h16l1.07 2.41A1 1 0 0 0 26 30a1 1 0 0 0 .41-.09 1 1 0 0 0 .5-1.32zM8 18.16V15h13a1 1 0 0 0 0-2H8V7h16v11.16a.83.83 0 0 1-.84.84H8.84a.84.84 0 0 1-.84-.84zM10.65 21h10.7l.44 1H10.21zm-1.78 4 .45-1h13.36l.45 1z"/><path class="cls-1" d="M11 18a1 1 0 0 0 0-2 1 1 0 1 0 0 2zM21 18a1 1 0 0 0 0-2 1 1 0 1 0 0 2z"/></g></svg>