<svg id="water_tap" data-name="water tap" xmlns="http://www.w3.org/2000/svg" viewBox="0 0 25 25"><defs><style>.cls-1{fill:#231f20}</style></defs><path class="cls-1" d="M23.05 11.41a3 3 0 0 0-2.25-.79L9 11.46a.49.49 0 0 0-.5-.46H8V6h6.5a1.5 1.5 0 0 0 0-3h-13a.5.5 0 0 0-.5.5v2a.5.5 0 0 0 .5.5H2v5h-.5a.5.5 0 0 0-.5.5v9a.5.5 0 0 0 .5.5h7a.5.5 0 0 0 .5-.5v-2.71l9-1.94v1.42a.47.47 0 0 0 .19.38.45.45 0 0 0 .31.11h.1l4-.83a.5.5 0 0 0 .4-.49v-1.67l.61-.13a.49.49 0 0 0 .39-.49v-.55a3 3 0 0 0-.95-2.19zM22 16l-3 .63v-.89l3-.69zM2 4h12.5a.5.5 0 0 1 0 1H2zm1 2h4v5H3zm5 14H2v-8h6v8zm15-6.25-14 3v-4.28l11.87-.86a2 2 0 0 1 1.5.53A2 2 0 0 1 23 13.6zM20.77 19.08a.48.48 0 0 0-.54 0 3.27 3.27 0 0 0-1.54 3.84 2 2 0 0 0 3.62 0 3.27 3.27 0 0 0-1.54-3.84zm.64 3.41a1.06 1.06 0 0 1-1.82 0 2.28 2.28 0 0 1 .91-2.38 2.28 2.28 0 0 1 .91 2.38z"/><path class="cls-1" d="M3.5 15a.5.5 0 0 0-.5.5v3a.5.5 0 0 0 1 0v-3a.5.5 0 0 0-.5-.5zM3.52 13a.5.5 0 0 0-.5.5.5.5 0 0 0 .51.5.5.5 0 0 0 0-1z"/></svg>