<svg xmlns="http://www.w3.org/2000/svg" xmlns:xlink="http://www.w3.org/1999/xlink" viewBox="0 0 204.39 228.36"><defs><style>.cls-1{isolation:isolate;}.cls-2{opacity:0.4;mix-blend-mode:multiply;fill:url(#linear-gradient);}.cls-3{fill:#a8dedb;stroke:#1f2687;}.cls-3,.cls-4{stroke-miterlimit:10;stroke-width:6px;}.cls-4{fill:none;stroke:#212683;}.cls-5{fill:#f2a7c5;}.cls-6{fill:#212683;}.cls-7{fill:#1f2687;}</style><linearGradient id="linear-gradient" y1="114.18" x2="204.39" y2="114.18" gradientUnits="userSpaceOnUse"><stop offset="0" stop-color="#efa6c2"/><stop offset="1" stop-color="#96cdbd"/></linearGradient></defs><title>Ring</title><g class="cls-1"><g id="Layer_2" data-name="Layer 2"><g id="Layer_1-2" data-name="Layer 1"><path class="cls-2" d="M147.7,95a56.58,56.58,0,0,0-19.12,3.31,67.89,67.89,0,1,0-100,24.92,56.69,56.69,0,1,0,81.52,70.85A56.68,56.68,0,1,0,147.7,95Z"/><path class="cls-3" d="M52,49.15,41.65,41.78a3,3,0,0,1-.77-4.09l8.8-13.39a3,3,0,0,1,2.51-1.35H85A3,3,0,0,1,87.5,24.3l8.81,13.39a3,3,0,0,1-.77,4.09L85.18,49.15"/><path class="cls-3" d="M123.36,191.84h0L113,199.21a3,3,0,0,0-.77,4.1L121,216.7a3,3,0,0,0,2.5,1.35h32.81a3,3,0,0,0,2.51-1.35l8.8-13.39a3,3,0,0,0-.77-4.1l-10.35-7.36h0"/><line class="cls-4" x1="43.6" y1="33.55" x2="65" y2="33.55"/><line class="cls-4" x1="67.83" y1="33.55" x2="72.5" y2="33.55"/><line class="cls-4" x1="113.53" y1="204.33" x2="134.93" y2="204.33"/><line class="cls-4" x1="137.76" y1="204.33" x2="142.43" y2="204.33"/><path class="cls-5" d="M126.07,91.2s0,0,0,0a58.64,58.64,0,0,0-4.93-12.68.05.05,0,0,0,0,0,59.37,59.37,0,1,0-33.82,84.11.29.29,0,0,0,.12,0,58.22,58.22,0,0,0,12.25-5.71l.11-.07a59.45,59.45,0,0,0,26.3-65.53ZM94.9,143.63a45.83,45.83,0,1,1,19.45-37.45A45.87,45.87,0,0,1,94.9,143.63Z"/><path class="cls-5" d="M199.09,131.39A59.39,59.39,0,0,0,144.38,75.6c-.5,0-1-.07-1.51-.09-1,0-1.95-.08-2.93-.08s-1.71,0-2.55,0l-1.12.06a59.07,59.07,0,0,0-27.53,8.66,45.47,45.47,0,0,1,4.76,13.17,45.56,45.56,0,0,1,24.57-8.28h.11c.54,0,1.08,0,1.63,0H141l1.18,0a45.76,45.76,0,0,1,0,91.39l-1.18,0h-1.18A45.71,45.71,0,0,1,94.9,143.63a45.87,45.87,0,0,1-12.56,6.21,58.42,58.42,0,0,0,5,12.71,59.18,59.18,0,0,0,48.37,31.5c.7,0,1.42.09,2.13.11s1.34,0,2,0h.44c.46,0,.92,0,1.38,0l1.22,0a.06.06,0,0,0,.06,0,59.38,59.38,0,0,0,56.18-55.88c.07-1.13.1-2.27.1-3.42S199.16,132.53,199.09,131.39Z"/><path class="cls-4" d="M126.07,91.2s0,0,0,0a58.64,58.64,0,0,0-4.93-12.68.05.05,0,0,0,0,0,59.37,59.37,0,1,0-33.82,84.11.29.29,0,0,0,.12,0,58.22,58.22,0,0,0,12.25-5.71l.11-.07a59.45,59.45,0,0,0,26.3-65.53ZM94.9,143.63a45.87,45.87,0,0,1-12.56,6.21M113.5,97.37a45.47,45.47,0,0,0-4.76-13.17"/><path class="cls-4" d="M82.34,149.84a45.77,45.77,0,1,1,26.4-65.64"/><path class="cls-4" d="M113.5,97.37a45.83,45.83,0,0,1-18.6,46.26"/><path class="cls-4" d="M121.13,78.48a59.43,59.43,0,0,1,76.47,42.06"/><path class="cls-4" d="M197.6,149.09A59.39,59.39,0,0,1,87.41,162.51"/><path class="cls-4" d="M126.07,91.2a45.76,45.76,0,1,1-26.3,65.53"/><circle class="cls-6" cx="199.19" cy="134.82" r="3.43"/><path class="cls-7" d="M17.35,13.9H14V10.59a3,3,0,1,0-6,0V13.9H4.7a3,3,0,0,0,0,6H8v3.31a3,3,0,0,0,6,0V19.93h3.31a3,3,0,1,0,0-6Z"/><path class="cls-7" d="M171.31,33H168V29.73a3,3,0,1,0-6,0V33h-3.31a3,3,0,0,0,0,6H162v3.31a3,3,0,0,0,6,0V39.06h3.31a3,3,0,1,0,0-6Z"/><path class="cls-7" d="M36,190.18H33.2V187.4a2.53,2.53,0,1,0-5.05,0v2.78H25.36a2.53,2.53,0,0,0,0,5.05h2.78V198a2.53,2.53,0,0,0,5.05,0v-2.78H36a2.53,2.53,0,1,0,0-5.05Z"/></g></g></g></svg>