<svg xmlns="http://www.w3.org/2000/svg" viewBox="0 0 64 64"><g data-name="saving money"><path d="M56 24H8a1 1 0 0 1-1-1v-6a1 1 0 0 1 .65-.94l24-9a1.05 1.05 0 0 1 .7 0l24 9A1 1 0 0 1 57 17v6a1 1 0 0 1-1 1zM9 22h46v-4.31L32 9.07 9 17.69z"/><path d="M54 28H10a1 1 0 0 1-1-1v-4a1 1 0 0 1 1-1h44a1 1 0 0 1 1 1v4a1 1 0 0 1-1 1zm-43-2h42v-2H11zM34 55H8a1 1 0 0 1-1-1v-5a1 1 0 0 1 1-1h26a1 1 0 0 1 1 1v5a1 1 0 0 1-1 1zM9 53h24v-3H9z"/><path d="M34 50H10a1 1 0 0 1-1-1v-4a1 1 0 0 1 1-1h24a1 1 0 0 1 1 1v4a1 1 0 0 1-1 1zm-23-2h22v-2H11zM20 32h-6a3 3 0 0 1-3-3v-2a1 1 0 0 1 1-1h10a1 1 0 0 1 1 1v2a3 3 0 0 1-3 3zm-7-4v1a1 1 0 0 0 1 1h6a1 1 0 0 0 1-1v-1z"/><path d="M22 46H12a1 1 0 0 1-1-1v-2a3 3 0 0 1 3-3h6a3 3 0 0 1 3 3v2a1 1 0 0 1-1 1zm-9-2h8v-1a1 1 0 0 0-1-1h-6a1 1 0 0 0-1 1z"/><path d="M20 42h-6a1 1 0 0 1-1-1V31a1 1 0 0 1 1-1h6a1 1 0 0 1 1 1v10a1 1 0 0 1-1 1zm-5-2h4v-8h-4zM50 32h-6a3 3 0 0 1-3-3v-2a1 1 0 0 1 1-1h10a1 1 0 0 1 1 1v2a3 3 0 0 1-3 3zm-7-4v1a1 1 0 0 0 1 1h6a1 1 0 0 0 1-1v-1z"/><path d="M50 43h-6a1 1 0 0 1-1-1V31a1 1 0 0 1 1-1h6a1 1 0 0 1 1 1v11a1 1 0 0 1-1 1zm-5-2h4v-9h-4zM32 21a5 5 0 1 1 5-5 5 5 0 0 1-5 5zm0-8a3 3 0 1 0 3 3 3 3 0 0 0-3-3z"/><path d="M54 57H36a3 3 0 0 1-3-3V44a3 3 0 0 1 3-3h18a3 3 0 0 1 3 3v10a3 3 0 0 1-3 3zM36 43a1 1 0 0 0-1 1v10a1 1 0 0 0 1 1h18a1 1 0 0 0 1-1V44a1 1 0 0 0-1-1z"/><path d="M45 53a4 4 0 1 1 4-4 4 4 0 0 1-4 4zm0-6a2 2 0 1 0 2 2 2 2 0 0 0-2-2z"/><circle cx="52" cy="49" r="1"/><circle cx="38" cy="49" r="1"/><path d="M32 41a1 1 0 0 1-1-1v-9a1 1 0 0 1 2 0v9a1 1 0 0 1-1 1z"/><path d="M35 35a1 1 0 0 1-.71-.29L32 32.41l-2.29 2.3a1 1 0 0 1-1.42-1.42l3-3a1 1 0 0 1 1.42 0l3 3a1 1 0 0 1 0 1.42A1 1 0 0 1 35 35z"/></g></svg>