<svg xmlns="http://www.w3.org/2000/svg" viewBox="0 0 48 48"><defs><style>.cls-1{fill:#cc8679;}.cls-2{fill:#bf7267;}.cls-3{fill:#af5d54;}.cls-4{fill:#d3dbef;}.cls-5{fill:#4ac6b7;}.cls-6{fill:#37b7a4;}.cls-7{fill:#505572;}.cls-8{fill:#231f20;}</style></defs><title>Bank</title><g id="Bank"><path class="cls-1" d="M44,16H4a2,2,0,0,1-2-2V11L24,2l22,9v3A2,2,0,0,1,44,16Z"/><path class="cls-2" d="M43,9.7727V14a2,2,0,0,1-2,2h3a2,2,0,0,0,2-2V11Z"/><path class="cls-2" d="M4,42H44a2,2,0,0,1,2,2v1a1,1,0,0,1-1,1H3a1,1,0,0,1-1-1V44a2,2,0,0,1,2-2Z"/><path class="cls-3" d="M44,42H41a2,2,0,0,1,2,2v1a1,1,0,0,1-1,1h3a1,1,0,0,0,1-1V44A2,2,0,0,0,44,42Z"/><rect class="cls-4" x="6" y="16" width="4" height="26"/><rect class="cls-4" x="22" y="16" width="4" height="26"/><rect class="cls-4" x="38" y="16" width="4" height="26"/><circle class="cls-5" cx="24" cy="16" r="8"/><path class="cls-6" d="M24,8a8.0424,8.0424,0,0,0-1,.0691,7.9928,7.9928,0,0,1,0,15.8618A7.997,7.997,0,1,0,24,8Z"/><path class="cls-7" d="M25,20H22a1,1,0,0,1,0-2h3V17H23a2.002,2.002,0,0,1-2-2V14a2.002,2.002,0,0,1,2-2h3a1,1,0,0,1,0,2H23v1h2a2.002,2.002,0,0,1,2,2v1A2.002,2.002,0,0,1,25,20Z"/><path class="cls-7" d="M24,14a1,1,0,0,1-1-1V12a1,1,0,0,1,2,0v1A1,1,0,0,1,24,14Z"/><path class="cls-7" d="M24,21a1,1,0,0,1-1-1V19a1,1,0,0,1,2,0v1A1,1,0,0,1,24,21Z"/><path class="cls-1" d="M6,38H42a2,2,0,0,1,2,2v2a0,0,0,0,1,0,0H4a0,0,0,0,1,0,0V40A2,2,0,0,1,6,38Z"/><path class="cls-2" d="M42,38H39a2,2,0,0,1,2,2v2h3V40A2,2,0,0,0,42,38Z"/><path class="cls-8" d="M44,17a3.0033,3.0033,0,0,0,3-3V11a1,1,0,0,0-.6216-.9258l-22-9a1.0049,1.0049,0,0,0-.7568,0l-22,9A1,1,0,0,0,1,11v3a3.0033,3.0033,0,0,0,3,3H5V37.1841A2.9951,2.9951,0,0,0,3,40v1.1843A2.9951,2.9951,0,0,0,1,44v1a2.002,2.002,0,0,0,2,2H45a2.002,2.002,0,0,0,2-2V44a2.9951,2.9951,0,0,0-2-2.8157V40a2.9951,2.9951,0,0,0-2-2.8157V17ZM3,14V11.6713L24,3.08l21,8.5908V14a1.0013,1.0013,0,0,1-1,1H32.941a8.9963,8.9963,0,0,0-17.882,0H4A1.0013,1.0013,0,0,1,3,14ZM27,37V24.4747A9.0143,9.0143,0,0,0,32.941,17H37V37Zm-4,0V24.9409a8.5011,8.5011,0,0,0,2,0V37ZM11,37V17h4.059A9.0143,9.0143,0,0,0,21,24.4747V37ZM24,23a7,7,0,1,1,7-7A7.0079,7.0079,0,0,1,24,23ZM9,17V37H7V17ZM5,40a1.0013,1.0013,0,0,1,1-1H42a1.0013,1.0013,0,0,1,1,1v1H5Zm40,5H3V44a1.0013,1.0013,0,0,1,1-1H44a1.0013,1.0013,0,0,1,1,1Zm-4-8H39V17h2Z"/><path class="cls-8" d="M26,14a1,1,0,0,0,0-2H25a1,1,0,1,0-2,0,2.002,2.002,0,0,0-2,2v1a2.002,2.002,0,0,0,2,2h2v1H22a1,1,0,0,0,0,2h1a1,1,0,0,0,2,0,2.002,2.002,0,0,0,2-2V17a2.002,2.002,0,0,0-2-2H23V14Z"/></g></svg>