<svg xmlns="http://www.w3.org/2000/svg" viewBox="0 0 512 512"><defs><style>.cls-1{fill:#524896;}.cls-2{fill:#5f58a1;}.cls-3{fill:#415ca5;}.cls-4{fill:#5272b4;}.cls-5{fill:#a33c78;}.cls-6{fill:#cd458f;}.cls-7{fill:#f6ea49;}.cls-8{fill:#e5be3d;}.cls-9{fill:#db9932;}.cls-10{fill:#d77879;}.cls-11{fill:#735028;}.cls-12{fill:#be8435;}.cls-13{fill:#8f2f2f;}.cls-14{fill:#ac3030;}.cls-15{fill:#fff;}.cls-16{fill:#ab3939;}</style></defs><title>Gifts</title><g id="BULINE"><circle class="cls-1" cx="256" cy="256" r="256"/></g><g id="Icons"><path class="cls-2" d="M486.31,149.38a228.25,228.25,0,0,1-209,227.43q-4.19.36-8.41.55c-3.6.17-7.21.26-10.85.26q-9.74,0-19.26-.81a226.77,226.77,0,0,1-102.3-34.22A228.08,228.08,0,0,1,29.81,149.38q0-7.14.43-14.17A256.84,256.84,0,0,1,94.6,57.29a95.75,95.75,0,0,1,.9-18.4,5.46,5.46,0,0,1,7.83-4.09c3.18,1.59,7.49,3.55,12.78,5.56l1.18.44a256.26,256.26,0,0,1,262.06-9.17l8.19,1.19,44.92,6.5a19.17,19.17,0,0,1,12.85,7.8c6.79,9.46,16.75,27.95,11.41,50A255.91,255.91,0,0,1,486.25,144C486.29,145.78,486.31,147.58,486.31,149.38Z"/><path class="cls-3" d="M456.72,97.09a63.71,63.71,0,0,1-11,22.79H290.82l.55-.5c3.49-3.22,23-21.6,38-43a138.16,138.16,0,0,0,11.2-18.74,74.32,74.32,0,0,0,5.1-13.42c.17-.65.37-1.29.6-1.91A19.23,19.23,0,0,1,367,29.84l12.31,1.79,8.19,1.19,44.92,6.5a19.17,19.17,0,0,1,12.85,7.8C452.1,56.58,462.06,75.07,456.72,97.09Z"/><path class="cls-4" d="M456.72,97.09a63.71,63.71,0,0,1-11,22.79H324.56l.55-.5c1.46-1.35,5.77-5.39,11.39-11.21,5.34-5.54,11.87-12.69,18.25-20.68.55-.67,1.09-1.36,1.64-2,10-12.85,19.47-27.63,23-41.26A19.48,19.48,0,0,1,385,34.84a19,19,0,0,1,2.55-2l44.92,6.5a19.17,19.17,0,0,1,12.85,7.8C452.1,56.58,462.06,75.07,456.72,97.09Z"/><path class="cls-5" d="M264.75,119.88H112.5S96.06,90.46,94.6,57.29a95.75,95.75,0,0,1,.9-18.4,5.46,5.46,0,0,1,7.83-4.09c3.18,1.59,7.49,3.55,12.78,5.56l1.18.44a160.15,160.15,0,0,0,63.57,9.9c1.08-.06,2.14-.1,3.22-.1a69.23,69.23,0,0,1,41.66,13.48A100,100,0,0,1,241,78.31c.78.89,1.56,1.81,2.33,2.76a122.15,122.15,0,0,1,15.89,25.5c.24.48.46,1,.68,1.46q2.44,5.34,4.63,11.35Z"/><path class="cls-6" d="M264.75,119.88H133.31S111.37,80.62,116,41.67c0-.43.1-.87.16-1.31l1.18.44a160.15,160.15,0,0,0,63.57,9.9c1.08-.06,2.14-.1,3.22-.1q3.36.21,6.86.28a68,68,0,0,1,34.8,13.2A100,100,0,0,1,241,78.31c.78.89,1.56,1.81,2.33,2.76a122.15,122.15,0,0,1,15.89,25.5c.24.48.46,1,.68,1.46q2.44,5.34,4.63,11.35Z"/><path class="cls-7" d="M456.5,130.62V415.18a257,257,0,0,1-80,66.75,250.58,250.58,0,0,1-22.77,10.76h0q-10.35,4.29-21.14,7.67h0A256,256,0,0,1,256,512q-7.53,0-14.95-.43A254.59,254.59,0,0,1,136.5,482.45V119.88H445.75A10.75,10.75,0,0,1,456.5,130.62Z"/><path class="cls-8" d="M376.47,481.93a250.58,250.58,0,0,1-22.77,10.76h0q-10.35,4.29-21.14,7.67h0A256,256,0,0,1,256,512q-7.53,0-14.95-.43A254.59,254.59,0,0,1,136.5,482.45V119.88s8.34,26.17,24.74,65.17l2.08,4.93,0,.08c21.1,49.45,54.47,117.6,99.63,179.33q2.92,4,5.92,8Q277,388,285.49,398.31a479.81,479.81,0,0,0,44.76,47.47A371.59,371.59,0,0,0,362,472Q369.14,477.16,376.47,481.93Z"/><path class="cls-9" d="M136.5,119.88V482.45a256.29,256.29,0,0,1-31.41-19.64q-8.36-6.1-16.18-12.86A256.93,256.93,0,0,1,57.5,417.66v-287a10.74,10.74,0,0,1,10.75-10.74Z"/><circle class="cls-10" cx="187.5" cy="176.88" r="27.5"/><circle class="cls-10" cx="264.75" cy="254.13" r="27.5"/><circle class="cls-10" cx="339.37" cy="328.75" r="27.5"/><circle class="cls-10" cx="415.87" cy="405.25" r="27.5"/><circle class="cls-10" cx="183.43" cy="321.81" r="27.5"/><circle class="cls-10" cx="258.06" cy="396.44" r="27.5"/><path class="cls-10" d="M362.06,472.94a27.45,27.45,0,0,1-8.36,19.75h0q-10.35,4.29-21.14,7.67h0a27.5,27.5,0,0,1-2.29-54.58,26.58,26.58,0,0,1,4.31-.34A27.48,27.48,0,0,1,362,472C362.05,472.29,362.06,472.62,362.06,472.94Z"/><path class="cls-10" d="M164.56,434.68a27.49,27.49,0,0,1-27.5,27.5,5.24,5.24,0,0,1-.56,0v-55a5.24,5.24,0,0,1,.56,0A27.5,27.5,0,0,1,164.56,434.68Z"/><path class="cls-10" d="M241.06,511.18c0,.13,0,.26,0,.39a255,255,0,0,1-53.65-8.87,27.5,27.5,0,0,1,53.66,8.48Z"/><path class="cls-10" d="M326.88,121.82a27.5,27.5,0,0,1-55,0c0-.66,0-1.3.08-1.94H326.8C326.86,120.52,326.88,121.16,326.88,121.82Z"/><circle class="cls-10" cx="374" cy="196.44" r="27.5"/><path class="cls-10" d="M456.5,246.1v53.67a27.5,27.5,0,1,1-6-54.34A27,27,0,0,1,456.5,246.1Z"/><circle class="cls-11" cx="249.94" cy="173.38" r="21.94"/><path class="cls-12" d="M105.09,119.88V462.81q-8.36-6.1-16.18-12.86V119.88Z"/><path class="cls-13" d="M334,119.38h-123s38.49-39.15,41.33-75.23c.75-9.68,9.74-17.27,20.84-17.27h52.56c10.93,0,20,7.36,20.83,16.89C348.28,65.07,374.55,101.07,334,119.38Z"/><path class="cls-14" d="M334,119.38H248.11s38.49-39.15,41.33-75.23c.76-9.68,9.75-17.27,20.84-17.27h15.39c10.93,0,20,7.36,20.83,16.89C348.28,65.07,374.55,101.07,334,119.38Z"/><path class="cls-15" d="M346.5,183.38a10,10,0,0,1-10-10V103.91c0-26.21-17.17-47.53-38.28-47.53s-38.28,21.32-38.28,47.53v69.47a10,10,0,0,1-20,0V103.91c0-37.24,26.14-67.53,58.28-67.53s58.28,30.29,58.28,67.53v69.47A10,10,0,0,1,346.5,183.38Z"/><path class="cls-13" d="M347.8,177.85c0-30-24.8-38.93-36.65-41.48a20.11,20.11,0,0,0-26.22,17.57,20,20,0,0,0,3.44,12.88,14.86,14.86,0,0,1-.09,16.59,19.91,19.91,0,0,0-3.4,11.25c0,11.24,9.71,20.16,20.94,20C349.18,214.22,347.8,177.85,347.8,177.85Z"/><path class="cls-14" d="M345.19,177.12c0-22.21-18.34-28.8-27.11-30.68a14.87,14.87,0,0,0-19.39,13,14.78,14.78,0,0,0,2.54,9.52,11,11,0,0,1-.06,12.27,14.77,14.77,0,0,0-2.52,8.32c0,8.32,7.18,14.91,15.49,14.82C346.21,204,345.19,177.12,345.19,177.12Z"/><path class="cls-13" d="M345.2,177.85c0-30,24.79-38.93,36.65-41.48a20.1,20.1,0,0,1,26.21,17.57,20.07,20.07,0,0,1-3.43,12.88,14.84,14.84,0,0,0,.08,16.59,20,20,0,0,1,3.41,11.25c0,11.24-9.71,20.16-20.95,20C343.82,214.22,345.2,177.85,345.2,177.85Z"/><path class="cls-14" d="M347.81,177.12c0-22.21,18.34-28.8,27.11-30.68A14.87,14.87,0,0,1,391.77,169a11,11,0,0,0,.06,12.27,14.77,14.77,0,0,1,2.52,8.32c0,8.32-7.18,14.91-15.5,14.82C346.79,204,347.81,177.12,347.81,177.12Z"/><path class="cls-13" d="M364.56,177.84a16.76,16.76,0,0,1-33.52,0,16.58,16.58,0,0,1,1-5.7,16.76,16.76,0,0,1,31.52,0A16.58,16.58,0,0,1,364.56,177.84Z"/><path class="cls-16" d="M363.56,172.14a16.76,16.76,0,0,1-31.52,0,16.76,16.76,0,0,1,31.52,0Z"/></g></svg>