<svg xmlns="http://www.w3.org/2000/svg" xmlns:xlink="http://www.w3.org/1999/xlink" viewBox="0 0 219.64 218.62"><defs><style>.cls-1{isolation:isolate;}.cls-2{opacity:0.4;mix-blend-mode:multiply;fill:url(#linear-gradient);}.cls-3{fill:#9faed0;}.cls-4,.cls-5{fill:#a8dedb;}.cls-4{stroke:#1f2687;}.cls-4,.cls-6{stroke-miterlimit:10;stroke-width:6px;}.cls-6{fill:none;stroke:#212683;}.cls-7{fill:#212683;}</style><linearGradient id="linear-gradient" y1="96.92" x2="182.97" y2="96.92" gradientUnits="userSpaceOnUse"><stop offset="0" stop-color="#efa6c2"/><stop offset="1" stop-color="#96cdbd"/></linearGradient></defs><title>Shirt</title><g class="cls-1"><g id="Layer_2" data-name="Layer 2"><g id="Layer_1-2" data-name="Layer 1"><path class="cls-2" d="M156.68,112.42A68.39,68.39,0,0,0,160,91.48c0-2-.1-4-.27-5.9a45.74,45.74,0,1,0-62.3-62.3c-1.94-.17-3.91-.27-5.9-.27a68.45,68.45,0,0,0-66.59,84.36,45.74,45.74,0,1,0,62,60.69,45.74,45.74,0,1,0,69.78-55.65Z"/><polygon class="cls-3" points="112.42 53.13 143.92 21.63 80.92 21.63 112.42 53.13"/><path class="cls-3" d="M77.46,44.55h70.76a41.13,41.13,0,0,1,41.13,41.13V208.17a7,7,0,0,1-7,7H43.37a7,7,0,0,1-7-7V85.68A41.13,41.13,0,0,1,77.46,44.55Z"/><polyline class="cls-4" points="147.56 146.38 189.34 146.38 189.36 146.38 189.36 131.63 189.34 131.63 144.18 131.63 138.14 131.63"/><polyline class="cls-4" points="81.51 131.63 36.33 131.63 36.33 146.38 78.12 146.38"/><path class="cls-5" d="M149.13,137.59l-3.62-6.72a8.65,8.65,0,0,0-3.94-3.74h0a4.45,4.45,0,0,0-.2-3.94c-1.85-2.88-7.72-2.4-13.11,1.07a19.12,19.12,0,0,0-5,4.58,14,14,0,0,0-20,0,18.85,18.85,0,0,0-5-4.54c-5.4-3.47-11.27-3.95-13.11-1.07a4.45,4.45,0,0,0-.2,3.95A8.59,8.59,0,0,0,81,130.87l-3.45,6.38v8.93q.08.15.18.3a8.67,8.67,0,0,0,3.76,3.22l1.17.52a8.7,8.7,0,0,0,5.14.62l8.9-1.64a8.75,8.75,0,0,0,4.9-2.73c.26.38.53.74.82,1.09v1.3c1-.33,2.09-.6,3.16-.84a12.22,12.22,0,0,0,16.56,0c.63.14,1.27.28,1.89.46v-.94a12.73,12.73,0,0,0,.84-1.14,8.69,8.69,0,0,0,4.93,2.78l8.9,1.64a8.7,8.7,0,0,0,5.14-.62l1.17-.52a8.72,8.72,0,0,0,5.17-8A8.76,8.76,0,0,0,149.13,137.59Z"/><path class="cls-4" d="M115.3,152.51l-2.45,3.34-8.63,11.75c-1.56,2.12-4.63,1.49-4.87-1l-.22-2.26a2.44,2.44,0,0,0-3-2.21l-2.23.46c-2.44.51-3.95-2.23-2.39-4.35l6.85-9.31,2.47-3.36"/><line class="cls-4" x1="110.4" y1="152.54" x2="110.39" y2="152.53"/><path class="cls-4" d="M112.84,155.85l8.63,11.74c1.55,2.12,4.63,1.49,4.87-1l.22-2.26a2.44,2.44,0,0,1,3-2.21l2.22.46c2.44.52,4-2.23,2.4-4.35l-6.84-9.31h0l-2.51-3.42"/><path class="cls-6" d="M66.15,44.55c-.75.35-1.5.72-2.23,1.11A51.65,51.65,0,0,0,36.33,91.37V204.85A10.36,10.36,0,0,0,46.7,215.21h9"/><path class="cls-6" d="M73.91,215.21H179a10.37,10.37,0,0,0,10.38-10.36V91.37a51.62,51.62,0,0,0-27.59-45.7h0c-.73-.39-1.48-.76-2.23-1.11"/><path class="cls-4" d="M112.83,56.3,80.74,20.16l-.46-.52a1.29,1.29,0,0,0-1.59-.26l-12.8,7.17a8,8,0,0,0-4,8.51l2,10.6,4.95,26.13a5.67,5.67,0,0,0,7.92,4.1l36-16.41h0"/><path class="cls-4" d="M112.83,56.3l32.09-36.14.46-.52a1.3,1.3,0,0,1,1.6-.26l12.8,7.17a8,8,0,0,1,4,8.51l-2,10.6L156.8,71.79a5.67,5.67,0,0,1-7.92,4.1l-36-16.41h0"/><line class="cls-6" x1="79.6" y1="19.16" x2="146.07" y2="19.16"/><line class="cls-6" x1="112.83" y1="182" x2="112.83" y2="153.61"/><polyline class="cls-6" points="112.83 50.88 112.83 52.01 112.83 91.78"/><line class="cls-6" x1="112.83" y1="125.54" x2="112.83" y2="108.49"/><line class="cls-6" x1="112.83" y1="215.21" x2="112.83" y2="198.71"/><circle class="cls-4" cx="112.84" cy="100.14" r="8.36" transform="translate(-28.1 153.96) rotate(-62.49)"/><path class="cls-6" d="M118.25,151.61h0a8.38,8.38,0,0,1-3.6,1.79,8.86,8.86,0,0,1-1.8.19,8.35,8.35,0,0,1-5.31-1.91,0,0,0,0,0,0,0"/><circle class="cls-4" cx="112.84" cy="190.36" r="8.36"/><path class="cls-6" d="M99.25,138.1a17.52,17.52,0,0,1-7.46-2.82c-3.29-2.11-5.62-4.86-6.44-7.3a4.33,4.33,0,0,1,.2-3.83c1.79-2.79,7.49-2.33,12.73,1a18.49,18.49,0,0,1,4.86,4.42"/><path class="cls-6" d="M101.53,146.74h0"/><path class="cls-6" d="M85.34,128a8.38,8.38,0,0,0-3.83,3.63L78,138.14a8.47,8.47,0,0,0,4,11.76l1.14.5a8.4,8.4,0,0,0,5,.6l8.64-1.59a8.4,8.4,0,0,0,1.57-.45"/><path class="cls-6" d="M126.37,138.11a17.43,17.43,0,0,0,7.53-2.82c3.29-2.11,5.62-4.86,6.44-7.3h0a4.32,4.32,0,0,0-.2-3.83c-1.79-2.79-7.49-2.33-12.73,1a18.49,18.49,0,0,0-4.89,4.45"/><path class="cls-6" d="M140.34,128h0a8.36,8.36,0,0,1,3.83,3.63l3.52,6.52a8.57,8.57,0,0,1,1,4,8.5,8.5,0,0,1-5,7.74l-1.14.5a8.39,8.39,0,0,1-5,.6l-8.64-1.59a8.51,8.51,0,0,1-1.57-.45h0"/><line class="cls-6" x1="124.13" y1="146.7" x2="124.12" y2="146.69"/><circle class="cls-6" cx="112.81" cy="139.14" r="13.6"/><line class="cls-6" x1="101.29" y1="146.38" x2="100.23" y2="146.38"/><line class="cls-6" x1="125.45" y1="146.38" x2="124.33" y2="146.38"/><circle class="cls-7" cx="65.04" cy="215.21" r="3.41"/><path class="cls-7" d="M29.44,16.31H27.08V14a2.9,2.9,0,0,0-5.8,0v2.36H18.92a2.9,2.9,0,0,0,0,5.8h2.36v2.36a2.9,2.9,0,1,0,5.8,0V22.12h2.36a2.9,2.9,0,0,0,0-5.8Z"/><path class="cls-7" d="M216.74,166h-2.36v-2.36a2.9,2.9,0,0,0-5.8,0V166h-2.36a2.9,2.9,0,0,0,0,5.8h2.36v2.36a2.9,2.9,0,1,0,5.8,0v-2.36h2.36a2.9,2.9,0,0,0,0-5.8Z"/><path class="cls-7" d="M14.1,195.81H11.74v-2.36a2.9,2.9,0,0,0-5.8,0v2.36H3.58a2.9,2.9,0,0,0,0,5.8H5.94V204a2.9,2.9,0,1,0,5.8,0v-2.36H14.1a2.9,2.9,0,0,0,0-5.8Z"/><path class="cls-6" d="M177.92,185.63v14.5a3.5,3.5,0,0,1-3.5,3.5H158.17"/><line class="cls-6" x1="144.92" y1="53.13" x2="144.92" y2="74.62"/><line class="cls-6" x1="144.92" y1="45.25" x2="144.92" y2="50.38"/><path class="cls-3" d="M107.92,41.88"/></g></g></g></svg>