<svg xmlns="http://www.w3.org/2000/svg" viewBox="0 0 340 340"><g id="Layer_30" data-name="Layer 30"><path d="M246.988,223.6l24.093-1.545a3.869,3.869,0,0,1,4.09,3.393c1.208,9.758,2.186,37.713-20.268,64.832Z" style="fill:#8c9eb9"/><path d="M56.817,305.1s-9.829-11.072-14.171-35.853l30.643-.638S73.606,292.329,56.817,305.1Z" style="fill:#8c9eb9"/><path d="M52.926,201.2s-14.3.868-22.683,20.864c0,0-11.866,34.1,8.775,58.386l38.639-10.873S74.635,216.862,52.926,201.2Z" style="fill:#8c9eb9"/><path d="M76.338,243.852H49.885c.109,14.953-3,27.359-10.867,36.6a105.011,105.011,0,0,0,13.878.2h0c12.622-.675,19.941-3.511,19.941-3.511Z" style="fill:#fff"/><path d="M253.088,211.716a4.47,4.47,0,0,0-6.148-1.917c-17.5,9.545-54.2,22.62-91.026,19.816-26.748-2.036-53.174-14.71-72.733-21.545-18.009-6.293-30.255-6.866-30.255-6.866,5.751,5.676,15.308,19.188,15.308,46.321,0,38.812-11.417,57.573-11.417,57.573s49.378-32.579,90.619-35.048c44.383-1.633,89.044,19.08,102.257,25.783a4.458,4.458,0,0,0,6.021-1.986C273.111,258.278,258.966,223.461,253.088,211.716Z" style="fill:#fff"/><path d="M172.567,271.235H139.261s-18.055,10.833-25.449,45.91l13.842-2.579,7.824,9.973s6.906-23.485,20.436-39.264c13.53,15.779,20.436,39.264,20.436,39.264l7.823-9.973,13.842,2.579C190.622,282.068,172.567,271.235,172.567,271.235Z" style="fill:#e5486e"/><path d="M80.77,127.658V163.77a23.855,23.855,0,0,0,8.951,18.693c11.128,8.844,32.827,21.432,66.193,21.432s55.065-12.588,66.192-21.432a23.852,23.852,0,0,0,8.951-18.693V127.658Z" style="fill:#595975"/><path d="M286.478,74.178A474.513,474.513,0,0,0,164.55,16.985a29.986,29.986,0,0,0-17.272,0A474.524,474.524,0,0,0,25.349,74.178,11.839,11.839,0,0,0,24.24,93.072c43.363,36.653,98.875,58.879,121.446,66.96a30.328,30.328,0,0,0,20.456,0c22.57-8.081,78.083-30.307,121.445-66.96A11.838,11.838,0,0,0,286.478,74.178Z" style="fill:#797996"/><path d="M155.914,84.033h0a6.84,6.84,0,0,0,6.839,6.84H279.359A16.142,16.142,0,0,1,295.5,107.014v78.658h13.68V104.646a27.453,27.453,0,0,0-27.453-27.453H162.753A6.839,6.839,0,0,0,155.914,84.033Z" style="fill:#ffc676"/><path d="M302.715,163.994c-8.985,0-16.443,6.4-17.178,14.7-.534,6.027.284,9.984.418,14.864a42.481,42.481,0,0,1-2.931,16.248,2.46,2.46,0,0,0,1.9,3.314c7.816,1.263,12.153-1.446,14.3-3.646a2.414,2.414,0,0,1,3.748.326c.51.769,1.055,1.636,1.55,2.515a2.985,2.985,0,0,0,2.827,1.528c12.589-1.047,12.589-12.116,12.589-17.463V179.964C319.943,171.144,312.23,163.994,302.715,163.994Z" style="fill:#ffc676"/><path d="M155.914,226.7l5.8-3.4a9,9,0,0,1,13.251,5.489l1.7,6.5,6.5,1.7a9,9,0,0,1,5.489,13.251l-3.4,5.8,3.4,5.8a9,9,0,0,1-5.489,13.251l-6.5,1.7-1.7,6.5a9,9,0,0,1-13.251,5.489l-5.8-3.4-5.8,3.4a9,9,0,0,1-13.251-5.489l-1.7-6.5-6.5-1.7a9,9,0,0,1-5.489-13.251l3.4-5.8-3.4-5.8A9,9,0,0,1,128.651,237l6.5-1.7,1.7-6.5a9,9,0,0,1,13.251-5.489Z" style="fill:#ff6d8d"/><circle cx="155.914" cy="256.057" r="12.205" style="fill:#fff"/><path d="M312.68,162.9V104.645a31,31,0,0,0-19.86-28.888,15.156,15.156,0,0,0-4.406-4.494A477.046,477.046,0,0,0,165.559,13.634a33.367,33.367,0,0,0-19.289,0A476.989,476.989,0,0,0,23.414,71.263a15.338,15.338,0,0,0-1.433,24.482c17.44,14.741,36.84,27.168,55.29,37.3V163.77A27.2,27.2,0,0,0,87.544,185.2c12.737,10.123,34.939,22.191,68.369,22.191s55.633-12.068,68.371-22.192a27.2,27.2,0,0,0,10.274-21.433V133.047c17.695-9.72,36.256-21.559,53.132-35.516a12.6,12.6,0,0,1,4.31,9.484v56.256a19.3,19.3,0,0,0-9.95,15.112,60,60,0,0,0,.444,15.7c1.209,7.933-8.08,12.94-8.163,12.984a3.5,3.5,0,0,0,.474,6.416c8.071,2.78,15.056,2.681,20.758-.3a19.7,19.7,0,0,0,5.963-4.822,50.589,50.589,0,0,1,1.4,4.975,3.5,3.5,0,0,0,4.393,2.618,28.654,28.654,0,0,0,6.241-2.606,19.605,19.605,0,0,0,9.883-16.969V179.964A19.344,19.344,0,0,0,312.68,162.9Zm-85.122.87a20.241,20.241,0,0,1-7.629,15.954c-11.866,9.43-32.6,20.671-64.016,20.671S103.765,189.154,91.9,179.724a20.237,20.237,0,0,1-7.629-15.954V136.809a482.541,482.541,0,0,0,60.236,26.518,33.929,33.929,0,0,0,22.814,0,482.757,482.757,0,0,0,60.237-26.518Zm-62.6-7.033a26.922,26.922,0,0,1-18.1,0C125.02,148.915,69.557,126.794,26.5,90.4a8.338,8.338,0,0,1,.786-13.3,469.819,469.819,0,0,1,121-56.758,26.383,26.383,0,0,1,15.254,0A470.988,470.988,0,0,1,279.323,73.693H162.753a10.34,10.34,0,1,0,0,20.68s117.322.024,117.675.054C238.155,128.424,185.99,149.208,164.962,156.737Zm114.4-69.364H162.753a3.34,3.34,0,1,1,0-6.68H281.728a23.979,23.979,0,0,1,23.952,23.952v56.072a45.016,45.016,0,0,0-6.68.093V107.015C299,100.07,292.217,87.373,279.359,87.373Zm37.085,109.006a12.586,12.586,0,0,1-6.356,10.89q-.647.37-1.344.7A95.7,95.7,0,0,0,305.4,198.8a3.462,3.462,0,0,0-3.423-2.093,3.517,3.517,0,0,0-3.152,2.506,14.267,14.267,0,0,1-6.578,7.8,15.019,15.019,0,0,1-8.306,1.393c3.33-3.417,6.512-8.588,5.476-15.383A53.456,53.456,0,0,1,289.023,179c.572-6.452,6.587-11.507,13.692-11.507,7.57,0,13.729,5.594,13.729,12.47Z" style="fill:#3c3c4f"/><path d="M155.914,240.352a15.705,15.705,0,1,0,15.7,15.706A15.723,15.723,0,0,0,155.914,240.352Zm0,24.41a8.705,8.705,0,1,1,8.7-8.7A8.715,8.715,0,0,1,155.914,264.762Z" style="fill:#3c3c4f"/><path d="M59.6,306.179c7.5-4.516,36.184-21.078,65.39-28.77a12.594,12.594,0,0,0,2.045.854c-5.955,7.548-12.711,19.59-16.617,38a3.7,3.7,0,0,0,.364,2.64,3.5,3.5,0,0,0,3.669,1.681l11.756-2.192,6.514,8.305c1.984,2.224,5.427.647,6.111-1.172.076-.2,5.936-19.837,17.078-34.652,11.142,14.815,16.994,34.455,17.079,34.652,1.467,3.407,5.441,2.027,6.112,1.172l6.513-8.305,11.756,2.192a3.5,3.5,0,0,0,3.674-1.687,3.7,3.7,0,0,0,.359-2.633c-3.906-18.42-10.669-30.462-16.616-38a12.55,12.55,0,0,0,2.229-.966c30.195,6.335,55.568,18.782,62.807,22.544a5.971,5.971,0,0,0,4.39.443h0a6.068,6.068,0,0,0,3.718-3.062,86.556,86.556,0,0,0,6.571-16.636c17.222-19.867,15.036-57.166,14.933-58.764a3.5,3.5,0,0,0-3.659-3.269l-15.47.732a90.177,90.177,0,0,0-6.5-13.579,3.5,3.5,0,0,0-4.825-1.136c-10.256,6.369-38.175,18.905-71.293,21.471a12.392,12.392,0,0,0-7.578-6.861,12.9,12.9,0,0,0-10.467,1.285l-3.729,2.181-3.762-2.2a12.851,12.851,0,0,0-10.214-1.337,12.545,12.545,0,0,0-5.732,3.67c-13.207-3.25-26.022-8.188-37.365-12.573-5.135-1.985-9.984-3.86-14.506-5.44-17.786-6.214-30.043-6.994-31.173-7.054-1.82-.153-16.3-.664-25.183,20.549-10.131,24.182-4.082,51.05,7.722,63.791a6.094,6.094,0,0,0,1.919,1.37l.035.016a6.355,6.355,0,0,0,2.293.582c1.137.07,2.811.169,3.808.2a78.466,78.466,0,0,0,7.791,19.9,5.825,5.825,0,0,0,3.946,2.788h0A5.832,5.832,0,0,0,59.6,306.179Zm-20.8-31.343c-8.7-11.75-12.669-34.065-4.371-53.87,5.879-14.035,14.041-16.025,17.005-16.265,4.819,5.191,11.683,15.919,13.049,35.651h-14.6a3.5,3.5,0,0,0-3.5,3.451C46.151,260.312,41.641,270.216,38.807,274.836Zm16.933,22.22a77.029,77.029,0,0,1-4.735-12.833c3.578-.12,6.744-.406,9.438-.756A88.583,88.583,0,0,1,55.74,297.056ZM45.514,277.271c3.122-5.48,7.035-15.151,7.762-29.919H64.732c0,.059,0,.114,0,.172a148.783,148.783,0,0,1-2.618,28.627A91.625,91.625,0,0,1,45.514,277.271Zm74.627-25.251,2.362,4.038-2.361,4.036c-4.014,6.365-.615,11.389-.546,11.539-22.427,6.426-43.646,17.221-55.619,23.909,3.613-9.468,7.757-25.282,7.757-48.018,0-20.512-5.332-33.7-10.595-41.714a137.31,137.31,0,0,1,20.888,5.564c4.413,1.542,9.21,3.4,14.29,5.361,11.143,4.308,23.686,9.134,36.814,12.483l-.842,3.214-4.525,1.184a12.5,12.5,0,0,0-7.623,18.4Zm14.1,65.269-3.831-4.884a3.5,3.5,0,0,0-3.395-1.28l-8.571,1.6c3.808-14.753,9.509-24.46,14.482-30.617l.55,2.1a12.4,12.4,0,0,0,7.307,8.383,12.534,12.534,0,0,0,4.8.963c.02,0,.039,0,.059,0A135.6,135.6,0,0,0,134.239,317.289Zm59.147-4.566-8.571-1.6a3.5,3.5,0,0,0-3.4,1.28l-3.831,4.884a135.577,135.577,0,0,0-11.407-23.759,12.463,12.463,0,0,0,12.174-9.323l.55-2.1C183.871,288.256,189.577,297.963,193.386,312.723Zm-7.407-44.212a5.458,5.458,0,0,1-3.689,3.215l-6.5,1.7a3.5,3.5,0,0,0-2.5,2.5l-1.7,6.5a5.5,5.5,0,0,1-8.1,3.355l-5.8-3.4a3.5,3.5,0,0,0-3.535,0l-5.8,3.4a5.5,5.5,0,0,1-8.1-3.355l-1.7-6.5a3.5,3.5,0,0,0-2.5-2.5l-6.506-1.7a5.5,5.5,0,0,1-3.354-8.1l3.395-5.8a3.5,3.5,0,0,0,0-3.535l-3.4-5.8a5.5,5.5,0,0,1,3.354-8.1l6.506-1.7a3.5,3.5,0,0,0,2.5-2.5l1.7-6.5a5.886,5.886,0,0,1,3.215-3.687c1.288-.656,4.023-.17,4.882.334l5.8,3.4a3.5,3.5,0,0,0,3.535,0l5.8-3.4a5.5,5.5,0,0,1,8.1,3.355l1.7,6.5a3.5,3.5,0,0,0,2.5,2.5l6.5,1.7a5.5,5.5,0,0,1,3.354,8.1l-3.4,5.8a3.5,3.5,0,0,0,0,3.535l3.4,5.8A5.46,5.46,0,0,1,185.979,268.511Zm66.173,24.639a266.544,266.544,0,0,0-59.764-21.842c.017-.041.04-.078.057-.119a12.4,12.4,0,0,0-.759-11.1l-2.362-4.036,2.362-4.038a12.5,12.5,0,0,0-7.622-18.4l-3.153-.825c27.065-2.568,53.382-11.86,68.584-20.4C254.776,222.691,269.918,257.825,252.152,293.15Zm15.459-32.494a101.491,101.491,0,0,0-4.867-34.479l9.809-.464C272.624,232.321,272.2,247.312,267.611,260.656Z" style="fill:#3c3c4f"/></g></svg>