<svg xmlns="http://www.w3.org/2000/svg" viewBox="0 0 180 180" xml:space="preserve"><path fill="#FFDB76" d="M154.622 89.999c0 35.691-28.933 64.623-64.623 64.623-35.689 0-64.621-28.932-64.621-64.623 0-35.689 28.932-64.621 64.621-64.621 35.69 0 64.623 28.932 64.623 64.621z"/><path fill="#333" d="M90.937 136.181a.384.384 0 0 1-.007-.768 47.812 47.812 0 0 0 1.902-.078.38.38 0 0 1 .406.36.382.382 0 0 1-.359.406c-.638.04-1.289.066-1.935.079l-.007.001zm-1.919-.001h-.008a46.52 46.52 0 0 1-1.934-.081.382.382 0 0 1-.359-.406.384.384 0 0 1 .406-.359 48.77 48.77 0 0 0 1.902.079.384.384 0 0 1-.007.767zm5.75-.236a.383.383 0 0 1-.039-.765c.63-.066 1.267-.146 1.889-.236a.387.387 0 0 1 .435.325.386.386 0 0 1-.324.436c-.633.091-1.279.173-1.921.238-.014.002-.028.002-.04.002zm-9.58-.004a.383.383 0 0 1-2.285-.679.382.382 0 0 1 .436-.324c.626.092 1.261.171 1.888.237a.384.384 0 0 1-.039.766zm13.376-.549a.386.386 0 0 1-.377-.312.385.385 0 0 1 .306-.449 42.697 42.697 0 0 0 1.862-.393.384.384 0 1 1 .175.748c-.624.146-1.261.28-1.894.4a.437.437 0 0 1-.072.006zm-17.172-.009a.351.351 0 0 1-.072-.007 45.423 45.423 0 0 1-1.894-.401.383.383 0 0 1-.286-.462.381.381 0 0 1 .461-.285c.613.143 1.239.276 1.862.395.208.04.345.24.306.448a.385.385 0 0 1-.377.312zm20.91-.862a.386.386 0 0 1-.37-.281.386.386 0 0 1 .268-.473c.61-.17 1.224-.355 1.822-.55a.384.384 0 0 1 .237.73c-.609.198-1.233.386-1.854.559a.362.362 0 0 1-.103.015zm-24.648-.013a.382.382 0 0 1-.104-.014 47.065 47.065 0 0 1-1.853-.559.384.384 0 1 1 .237-.73c.6.195 1.213.38 1.822.551a.383.383 0 0 1-.102.752zm28.299-1.172a.384.384 0 0 1-.133-.743c.59-.22 1.183-.454 1.765-.698a.384.384 0 1 1 .298.708c-.591.248-1.195.487-1.795.71a.4.4 0 0 1-.135.023zM74 133.318a.392.392 0 0 1-.134-.025 45.067 45.067 0 0 1-1.804-.715.384.384 0 1 1 .298-.708c.585.246 1.182.483 1.772.704a.384.384 0 0 1-.132.744zm35.482-1.465a.385.385 0 0 1-.163-.732c.568-.269 1.14-.553 1.7-.845a.385.385 0 1 1 .356.681c-.568.297-1.151.587-1.729.858a.371.371 0 0 1-.164.038zm-39.027-.03a.383.383 0 0 1-.163-.037 43.1 43.1 0 0 1-1.735-.865.384.384 0 0 1 .357-.68c.562.296 1.137.581 1.706.851a.385.385 0 0 1 .184.511.386.386 0 0 1-.349.22zm42.422-1.747a.383.383 0 0 1-.192-.715 45.29 45.29 0 0 0 1.626-.984.383.383 0 1 1 .412.647c-.541.344-1.099.681-1.653 1.003a.398.398 0 0 1-.193.049zm-45.825-.04a.373.373 0 0 1-.191-.052 42.224 42.224 0 0 1-1.656-1.008.383.383 0 1 1 .413-.646 46.38 46.38 0 0 0 1.627.99.383.383 0 0 1-.193.716zm49.061-2.014a.383.383 0 0 1-.219-.699c.52-.361 1.038-.738 1.539-1.117a.384.384 0 1 1 .463.611c-.508.386-1.035.769-1.563 1.137a.388.388 0 0 1-.22.068zm-52.3-.05a.378.378 0 0 1-.221-.07 43.651 43.651 0 0 1-1.563-1.141.383.383 0 1 1 .465-.611c.503.384 1.02.762 1.538 1.123a.383.383 0 0 1-.219.699zm55.355-2.268a.384.384 0 0 1-.245-.68 46.48 46.48 0 0 0 1.44-1.242.386.386 0 0 1 .544.028c.141.157.128.4-.03.543-.476.427-.969.852-1.465 1.264a.382.382 0 0 1-.244.087zm-58.411-.06a.382.382 0 0 1-.245-.089c-.494-.41-.986-.838-1.463-1.268a.384.384 0 1 1 .516-.569c.468.423.952.842 1.439 1.247a.384.384 0 0 1-.247.679zm61.264-2.506a.383.383 0 0 1-.268-.657c.452-.443.9-.9 1.334-1.359a.384.384 0 1 1 .559.526c-.439.467-.896.932-1.355 1.382a.389.389 0 0 1-.27.108zm-64.112-.068a.385.385 0 0 1-.269-.11 47.726 47.726 0 0 1-1.353-1.385.382.382 0 0 1 .019-.542.381.381 0 0 1 .542.018c.431.46.879.917 1.33 1.361a.384.384 0 0 1-.269.658zm66.741-2.726a.385.385 0 0 1-.29-.636c.413-.478.822-.971 1.215-1.466a.384.384 0 0 1 .602.478c-.4.503-.815 1.005-1.236 1.489a.378.378 0 0 1-.291.135zm-69.365-.073a.386.386 0 0 1-.291-.133c-.42-.488-.834-.989-1.232-1.492a.385.385 0 0 1 .603-.477c.391.493.799.986 1.211 1.467a.383.383 0 0 1-.291.635zm71.755-2.934a.383.383 0 0 1-.31-.61c.371-.51.739-1.036 1.09-1.562a.38.38 0 0 1 .532-.107.385.385 0 0 1 .106.533c-.356.535-.73 1.07-1.108 1.589a.385.385 0 0 1-.31.157zm-74.136-.074a.388.388 0 0 1-.312-.158 48.424 48.424 0 0 1-1.103-1.588.387.387 0 0 1 .108-.533.383.383 0 0 1 .532.107c.348.524.714 1.05 1.085 1.562a.384.384 0 0 1-.31.61zm76.267-3.122a.385.385 0 0 1-.328-.584c.328-.538.65-1.093.955-1.648a.384.384 0 1 1 .674.371 45.47 45.47 0 0 1-.973 1.677.386.386 0 0 1-.328.184zm-78.386-.072a.38.38 0 0 1-.329-.187 44.739 44.739 0 0 1-.966-1.672.383.383 0 1 1 .672-.37c.304.552.622 1.104.95 1.645a.386.386 0 0 1-.327.584zm80.243-3.294a.386.386 0 0 1-.345-.556c.283-.568.558-1.147.814-1.725.087-.193.314-.28.507-.193.193.086.28.312.194.508a48.93 48.93 0 0 1-.827 1.753.381.381 0 0 1-.343.213zm-82.089-.064a.383.383 0 0 1-.344-.213 44.748 44.748 0 0 1-.821-1.748.383.383 0 1 1 .701-.312c.256.575.528 1.153.808 1.718a.383.383 0 0 1-.344.555zm83.657-3.447a.385.385 0 0 1-.358-.526c.233-.588.458-1.189.666-1.787a.383.383 0 1 1 .725.252 44.5 44.5 0 0 1-.678 1.818.38.38 0 0 1-.355.243zm-85.211-.051a.382.382 0 0 1-.358-.243 47.114 47.114 0 0 1-.673-1.813.384.384 0 1 1 .725-.253c.206.596.429 1.195.661 1.784a.384.384 0 0 1-.355.525zm86.477-3.583a.385.385 0 0 1-.368-.496c.183-.606.354-1.225.511-1.833a.383.383 0 1 1 .743.191 45.35 45.35 0 0 1-.518 1.864.388.388 0 0 1-.368.274zm-87.738-.042a.383.383 0 0 1-.367-.274 45.045 45.045 0 0 1-.518-1.865.383.383 0 1 1 .744-.189c.156.612.327 1.229.509 1.833a.383.383 0 0 1-.368.495zm88.689-3.677a.385.385 0 0 1-.376-.463c.131-.617.251-1.246.355-1.87a.384.384 0 0 1 .757.128 47.852 47.852 0 0 1-.36 1.9.383.383 0 0 1-.376.305zm-89.637-.042a.382.382 0 0 1-.375-.306 45.18 45.18 0 0 1-.359-1.902.384.384 0 0 1 .757-.125c.104.623.223 1.252.354 1.869a.384.384 0 0 1-.377.464zm90.273-3.742a.384.384 0 0 1-.382-.432c.078-.626.146-1.263.197-1.894a.383.383 0 1 1 .766.063c-.053.642-.12 1.289-.2 1.925a.384.384 0 0 1-.381.338zm-90.905-.043a.385.385 0 0 1-.381-.337 46.004 46.004 0 0 1-.198-1.926.383.383 0 0 1 .352-.413.382.382 0 0 1 .414.352c.052.628.117 1.266.195 1.893a.386.386 0 0 1-.334.429l-.048.002zm91.224-3.782h-.018a.383.383 0 0 1-.367-.399 48.36 48.36 0 0 0 .039-1.903.384.384 0 0 1 .769 0c0 .642-.014 1.292-.04 1.936a.383.383 0 0 1-.383.366zm-91.538-.043a.383.383 0 0 1-.383-.368 47.495 47.495 0 0 1-.038-1.892v-.044a.383.383 0 0 1 .768 0v.044c0 .621.013 1.246.037 1.86a.382.382 0 0 1-.368.398c-.004.002-.011.002-.016.002zm91.54-3.707a.384.384 0 0 1-.384-.367 44.368 44.368 0 0 0-.113-1.901.383.383 0 0 1 .352-.413.381.381 0 0 1 .413.353c.053.638.091 1.288.116 1.931a.381.381 0 0 1-.368.398l-.016-.001zm-91.536-.131h-.016a.384.384 0 0 1-.368-.4 47.91 47.91 0 0 1 .121-1.932.385.385 0 0 1 .767.064c-.054.63-.094 1.269-.12 1.899a.384.384 0 0 1-.384.369zm91.226-3.694a.387.387 0 0 1-.382-.336 46.66 46.66 0 0 0-.271-1.884.38.38 0 0 1 .315-.441.382.382 0 0 1 .441.315c.105.632.198 1.276.276 1.916a.384.384 0 0 1-.333.428c-.016.002-.03.002-.046.002zm-90.904-.13a.385.385 0 0 1-.381-.433c.08-.637.175-1.282.282-1.914a.382.382 0 1 1 .755.128 48.43 48.43 0 0 0-.277 1.882.382.382 0 0 1-.379.337zm90.275-3.655a.383.383 0 0 1-.375-.307 45.52 45.52 0 0 0-.43-1.854.385.385 0 0 1 .744-.19c.158.624.306 1.259.436 1.886a.383.383 0 0 1-.297.455.304.304 0 0 1-.078.01zm-89.637-.13a.384.384 0 0 1-.375-.463c.133-.629.282-1.263.442-1.884a.383.383 0 1 1 .743.191 42.95 42.95 0 0 0-.434 1.853.385.385 0 0 1-.376.303zm88.693-3.589a.385.385 0 0 1-.368-.274 44.427 44.427 0 0 0-.584-1.811.384.384 0 1 1 .725-.252c.211.605.41 1.226.595 1.843a.382.382 0 0 1-.258.476.352.352 0 0 1-.11.018zm-87.737-.127a.385.385 0 0 1-.367-.496 45.13 45.13 0 0 1 .601-1.846.381.381 0 0 1 .489-.235c.2.069.306.289.236.488a46.827 46.827 0 0 0-.591 1.815.384.384 0 0 1-.368.274zm86.482-3.501a.384.384 0 0 1-.357-.242 46.182 46.182 0 0 0-.732-1.751.384.384 0 1 1 .701-.312c.26.586.511 1.185.746 1.78a.382.382 0 0 1-.218.497.347.347 0 0 1-.14.028zm-85.212-.132a.387.387 0 0 1-.358-.526c.239-.6.492-1.199.755-1.786a.385.385 0 0 1 .508-.193c.193.086.28.314.193.506a43.807 43.807 0 0 0-.741 1.758.385.385 0 0 1-.357.241zm83.66-3.367a.388.388 0 0 1-.346-.214 45.684 45.684 0 0 0-.877-1.685.383.383 0 1 1 .672-.369c.31.563.609 1.14.893 1.713a.384.384 0 0 1-.342.555zm-82.09-.143a.384.384 0 0 1-.343-.557c.287-.575.591-1.152.901-1.715a.384.384 0 0 1 .673.371 45.13 45.13 0 0 0-.888 1.688.38.38 0 0 1-.343.213zm80.247-3.218a.38.38 0 0 1-.328-.185c-.326-.54-.667-1.08-1.017-1.606a.383.383 0 1 1 .639-.424c.355.535.703 1.085 1.033 1.633a.382.382 0 0 1-.327.582zm-78.386-.147a.383.383 0 0 1-.327-.583c.333-.549.684-1.099 1.041-1.633a.383.383 0 1 1 .638.427 45.401 45.401 0 0 0-1.024 1.605.384.384 0 0 1-.328.184zm76.27-3.048a.386.386 0 0 1-.312-.158 47.821 47.821 0 0 0-1.147-1.517.384.384 0 1 1 .602-.477 51.51 51.51 0 0 1 1.167 1.542.384.384 0 0 1-.31.61zm-74.137-.144a.382.382 0 0 1-.31-.61c.378-.518.772-1.036 1.175-1.541a.384.384 0 0 1 .6.479 50.067 50.067 0 0 0-1.155 1.515.381.381 0 0 1-.31.157zm71.759-2.866a.386.386 0 0 1-.293-.134 43.74 43.74 0 0 0-1.27-1.416.384.384 0 0 1 .562-.525c.438.468.872.953 1.292 1.441a.385.385 0 0 1-.291.634zm-69.366-.139a.383.383 0 0 1-.29-.635c.42-.484.855-.968 1.298-1.437a.385.385 0 0 1 .56.527c-.436.461-.864.937-1.277 1.411a.38.38 0 0 1-.291.134zm66.745-2.663a.389.389 0 0 1-.271-.109 44.977 44.977 0 0 0-1.384-1.307.384.384 0 0 1 .515-.569c.476.431.95.878 1.408 1.328a.385.385 0 0 1-.268.657zm-64.112-.13a.383.383 0 0 1-.267-.658c.46-.45.935-.895 1.412-1.323a.384.384 0 0 1 .514.572c-.469.421-.937.858-1.39 1.301a.39.39 0 0 1-.269.108zm61.264-2.447a.381.381 0 0 1-.244-.088 45.055 45.055 0 0 0-1.49-1.188.384.384 0 0 1 .466-.61c.51.389 1.019.795 1.515 1.207a.382.382 0 0 1 .05.54.382.382 0 0 1-.297.139zm-58.409-.117a.383.383 0 0 1-.244-.68c.497-.41 1.008-.813 1.517-1.199a.383.383 0 1 1 .464.611c-.501.379-1.003.776-1.492 1.181a.383.383 0 0 1-.245.087zm55.358-2.212a.376.376 0 0 1-.22-.07 48.483 48.483 0 0 0-1.584-1.059.385.385 0 0 1 .413-.648c.543.348 1.085.71 1.61 1.077a.384.384 0 0 1-.219.7zm-52.3-.102a.39.39 0 0 1-.316-.165.386.386 0 0 1 .098-.535 47.276 47.276 0 0 1 1.611-1.068.384.384 0 0 1 .41.649c-.532.337-1.065.691-1.584 1.051a.397.397 0 0 1-.219.068zm49.062-1.967a.373.373 0 0 1-.193-.052 46.714 46.714 0 0 0-1.668-.923.384.384 0 1 1 .359-.68c.568.3 1.139.614 1.695.938a.383.383 0 0 1 .139.525.381.381 0 0 1-.332.192zm-45.824-.084a.385.385 0 0 1-.192-.716c.555-.32 1.125-.633 1.694-.93a.384.384 0 1 1 .356.681c-.56.292-1.121.6-1.666.914a.406.406 0 0 1-.192.051zm42.422-1.706a.384.384 0 0 1-.164-.037 48.197 48.197 0 0 0-1.741-.78.385.385 0 0 1 .3-.707c.592.25 1.188.517 1.771.793a.387.387 0 0 1 .183.512.387.387 0 0 1-.349.219zm-39.026-.067a.384.384 0 0 1-.162-.733 46.325 46.325 0 0 1 1.764-.783.384.384 0 0 1 .297.709c-.58.243-1.164.502-1.735.771a.386.386 0 0 1-.164.036zm35.484-1.431a.368.368 0 0 1-.134-.024c-.595-.222-1.2-.435-1.802-.63a.384.384 0 0 1 .237-.731c.612.201 1.229.417 1.832.642.199.075.3.296.226.495a.386.386 0 0 1-.359.248zm-31.954-.048a.383.383 0 0 1-.133-.744 48.15 48.15 0 0 1 1.829-.635.385.385 0 0 1 .237.731c-.604.195-1.208.405-1.799.623a.357.357 0 0 1-.134.025zm28.301-1.145a.374.374 0 0 1-.104-.015 45.316 45.316 0 0 0-1.844-.475.384.384 0 1 1 .176-.748c.626.149 1.256.31 1.874.482a.386.386 0 0 1-.102.756zm-24.65-.035a.384.384 0 0 1-.102-.754 44.07 44.07 0 0 1 1.877-.479.383.383 0 1 1 .173.748c-.615.143-1.236.301-1.844.47a.374.374 0 0 1-.104.015zm20.913-.843a.358.358 0 0 1-.072-.007 44.502 44.502 0 0 0-1.876-.318.385.385 0 0 1-.324-.437.386.386 0 0 1 .438-.322c.633.094 1.275.202 1.907.322.208.04.345.241.306.45a.387.387 0 0 1-.379.312zm-17.174-.025a.385.385 0 0 1-.07-.761 42.901 42.901 0 0 1 1.909-.317.384.384 0 0 1 .111.759 45.94 45.94 0 0 0-1.878.313.456.456 0 0 1-.072.006zm13.378-.537-.041-.002a45.696 45.696 0 0 0-1.896-.161.382.382 0 0 1-.359-.407.384.384 0 0 1 .408-.358c.642.04 1.291.095 1.928.162a.385.385 0 0 1-.04.766zm-9.581-.014a.385.385 0 0 1-.038-.766 46.816 46.816 0 0 1 1.928-.157.385.385 0 0 1 .047.766 47.038 47.038 0 0 0-1.937.157zm5.752-.229h-.01a46.433 46.433 0 0 0-1.903-.003.384.384 0 1 1-.015-.768 44.623 44.623 0 0 1 1.936.003.384.384 0 0 1-.008.768zM107.173 84.4l-18.014 8.151L71.143 84.4v20.55c0 1.507 8.066 2.729 18.015 2.729s18.015-1.223 18.015-2.729V84.4z"/><path fill="#333" d="M107.172 84.4v4.429l-18.017 8.146-18.012-8.151V84.4l18.016 8.152 18.013-8.152z"/><path fill="#757575" d="M89.157 90.664v1.894l-31.13-12.47v-1.722l.012-.007 31.118 12.305z"/><path fill="#333" d="m89.157 90.665-31.131-12.31 31.361-12.098 30.323 12.109zM117.483 79.597h1.821v19.119h-1.821z"/><path fill="#333" d="M121.277 99.4a2.882 2.882 0 1 0-5.765 0c0 1.59 1.29 2.884 2.882 2.884a2.884 2.884 0 0 0 2.883-2.884z"/><path fill="#333" d="M120.562 100.845h-3.639c-.609 1.627-1.956 6.101-1.191 12.232h.001c0 .367 1.346.665 3.005.665 1.66 0 3.006-.298 3.006-.665.764-6.132-.576-10.605-1.182-12.232z"/><g><path fill="#B2B2B2" d="m89.157 90.664.001 1.894 30.552-12.47v-1.722l-.014-.007-30.538 12.305z"/></g><g><path fill-rule="evenodd" clip-rule="evenodd" fill="#FF916E" d="M35.285 100.803h27.498v8.186H35.285z"/><path fill-rule="evenodd" clip-rule="evenodd" fill="#FF916E" d="M35.285 104.896h27.498v4.093H35.285z"/><path fill-rule="evenodd" clip-rule="evenodd" fill="#333" d="M58.154 100.803h1.027v8.186h-1.027zM53.258 100.803h1.026v8.186h-1.026zM37.162 100.803h1.027v8.186h-1.027zM56.134 103.519a.787.787 0 1 1 0-1.574.787.787 0 0 1 0 1.574z"/><path fill-rule="evenodd" clip-rule="evenodd" fill="#333" d="M56.134 105.683a.787.787 0 1 1 0-1.574.787.787 0 0 1 0 1.574z" opacity=".6"/><path fill-rule="evenodd" clip-rule="evenodd" fill="#333" d="M56.134 107.848a.787.787 0 1 1 0-1.575.787.787 0 0 1 0 1.575z" opacity=".2"/><g><path fill-rule="evenodd" clip-rule="evenodd" fill="#ADEBF6" d="m33.868 122.465.014-5.93 30.32.07-.014 5.93z"/><path fill-rule="evenodd" clip-rule="evenodd" fill="#ADEBF6" d="m64.188 122.534.003-2.416-30.318-.176-.006 2.524z"/><path fill-rule="evenodd" clip-rule="evenodd" fill="#FF916E" d="m59.982 122.528.014-5.931.885.002-.014 5.93zM56.917 122.515l.014-5.931.886.002-.014 5.93z"/><path fill-rule="evenodd" clip-rule="evenodd" fill="#333" d="m53.207 119.562.768-.764.763.769-.768.763zM51.38 119.522l.766-.765.764.766-.766.765z"/></g><g><path fill-rule="evenodd" clip-rule="evenodd" fill="#B2B2B2" d="m33.87 100.771.007-5.93 30.32.04-.007 5.93z"/><path fill-rule="evenodd" clip-rule="evenodd" fill="#B2B2B2" d="m64.19 100.811.002-2.415-30.319-.145-.003 2.523z"/><path fill-rule="evenodd" clip-rule="evenodd" fill="#ADEBF6" d="m59.983 100.802.008-5.93.885.001-.008 5.93zM56.918 100.794l.007-5.931h.885l-.007 5.932z"/><path fill-rule="evenodd" clip-rule="evenodd" fill="#333" d="m53.21 97.843.766-.765.765.766-.766.766zM51.38 97.812l.766-.764.765.767-.766.764z"/></g><g><path fill-rule="evenodd" clip-rule="evenodd" fill="#E0E0E0" d="M62.151 109.025v7.554H35.917v-7.554z"/><path fill-rule="evenodd" clip-rule="evenodd" fill="#B2B2B2" d="M62.152 112.878v3.701H35.918v-3.7z"/><path fill-rule="evenodd" clip-rule="evenodd" fill="#FF916E" d="M51.188 109.025h7.574v7.554h-7.574z"/><path fill-rule="evenodd" clip-rule="evenodd" fill="#333" d="M52.625 111.425a.787.787 0 1 1-.001-1.575.787.787 0 0 1 .001 1.575z"/><path fill-rule="evenodd" clip-rule="evenodd" fill="#333" d="M52.625 113.59a.788.788 0 1 1 0-1.575.788.788 0 0 1 0 1.575z" opacity=".6"/><path fill-rule="evenodd" clip-rule="evenodd" fill="#333" d="M52.625 115.755a.788.788 0 1 1 0-1.575.788.788 0 0 1 0 1.575z" opacity=".2"/><g><path fill-rule="evenodd" clip-rule="evenodd" fill="#FFF" d="M58.423 109.667v6.271h-.72v-6.27z"/></g><g><path fill-rule="evenodd" clip-rule="evenodd" fill="#FFF" d="M57.127 110.622v4.359h-.72v-4.36z"/></g></g><g><path fill="#FFF" d="M73.075 114.86h26.604v26.604H73.075z"/><path fill="#D1D1D1" d="M97.551 116.988v22.347h-.372v-22.347zM95.72 116.988v22.347h-.372v-22.347zM93.888 116.988v22.347h-.372v-22.347zM92.059 116.988v22.347h-.373v-22.347zM90.228 116.988v22.347h-.373v-22.347zM88.395 116.988v22.347h-.372v-22.347zM84.733 116.989v22.347h-.373v-22.347zM86.564 116.988v22.347h-.372v-22.347zM82.901 116.988v22.347h-.372v-22.347zM81.07 116.988v22.347h-.373v-22.347zM79.24 116.988v22.347h-.374v-22.347zM77.408 116.988v22.347h-.373v-22.347zM75.577 116.988v22.347h-.372v-22.347z"/><g><path fill="#D1D1D1" d="M97.552 139.335H75.205v-.372h22.347zM97.552 137.505H75.205v-.373h22.347zM97.552 135.674H75.205v-.373h22.347zM97.552 133.842H75.205v-.372h22.347zM97.552 132.01H75.205v-.372h22.347zM97.552 130.18H75.205v-.374h22.347zM97.552 126.516H75.205v-.372h22.347zM97.552 128.347H75.205v-.372h22.347zM97.552 124.685H75.205v-.373h22.347zM97.552 122.855H75.205v-.373h22.347zM97.552 121.024H75.205v-.372h22.347zM97.552 119.193H75.205v-.373h22.347zM97.552 117.36H75.205v-.371h22.347z"/></g><g><path fill="#ADEBF6" d="M79.957 136.57v-2.033h7.323v-3.46h-3.661v-3.463l-3.584-3.738.417-.398 3.742 3.905v3.119h3.662v4.61H80.53v.883h10.701v.575z"/><path fill="#333" d="M80.243 124.338a.77.77 0 1 1 0-1.538.77.77 0 0 1 0 1.538zM83.905 128.32a.768.768 0 1 1 0-1.536.769.769 0 1 1 0 1.536zM83.905 131.508a.768.768 0 1 1 0-1.536.768.768 0 0 1 0 1.536zM87.569 131.508a.768.768 0 1 1-.001-1.537.768.768 0 0 1 .001 1.537zM87.569 135.498a.768.768 0 1 1-.002-1.536.768.768 0 0 1 .002 1.536zM80.243 135.498a.768.768 0 1 1-.001-1.537.768.768 0 0 1 .001 1.537zM80.243 137.184a.768.768 0 1 1-.001-1.537.768.768 0 0 1 .001 1.537z"/><circle fill="#333" cx="91.231" cy="136.416" r=".768"/></g><g><path fill-rule="evenodd" clip-rule="evenodd" fill="#FF916E" d="m98.06 128.692-13.089-13.205 1.908-1.922 13.091 13.206z"/><path fill-rule="evenodd" clip-rule="evenodd" fill="#DD5A3C" d="m98.675 128.073-13.089-13.204.68-.684 13.089 13.205z"/><path fill-rule="evenodd" clip-rule="evenodd" fill="#FFF" d="M100.563 129.271s-.562-2.469-.594-2.5c-.09-.09-.309-.018-.487.163-.164.165-.232.358-.172.46-.102-.06-.295.01-.459.174-.164.166-.231.359-.172.461-.102-.06-.295.009-.459.175-.179.181-.251.398-.16.489.032.03 2.503.578 2.503.578z"/><path fill-rule="evenodd" clip-rule="evenodd" fill="#333" d="m100.28 128.077-.911.917 1.194.277z"/></g></g><g><path fill="#757575" d="M81.007 58.825a4.115 4.115 0 0 1-4.116 4.115H64.608a4.115 4.115 0 0 1-4.116-4.115V40.688a4.116 4.116 0 0 1 4.116-4.115H76.89a4.115 4.115 0 0 1 4.116 4.115v18.137z"/><path fill="#FFF" d="M62.182 38.78h17.024v3.522H62.182z"/><path fill="#333" d="M62.182 45.34h2.561v2.561h-2.561zM62.182 48.509h2.561v2.559h-2.561zM62.182 51.677h2.561v2.56h-2.561zM62.182 54.845h2.561v2.56h-2.561zM65.35 45.34h2.56v2.561h-2.56zM65.35 48.509h2.56v2.559h-2.56zM65.35 51.677h2.56v2.56h-2.56zM65.35 54.845h2.56v2.56h-2.56zM68.422 45.34h2.561v2.561h-2.561zM68.422 48.509h2.561v2.559h-2.561zM68.422 51.677h2.561v2.56h-2.561zM73.29 51.677h2.561v2.56H73.29zM76.362 51.677h2.559v2.56h-2.559zM73.29 48.509h2.561v2.559H73.29zM76.362 48.509h2.559v2.559h-2.559zM73.29 45.34h2.561v2.561H73.29zM76.362 45.34h2.559v2.561h-2.559zM68.422 54.845h2.561v2.56h-2.561zM62.182 57.949h2.561v2.56h-2.561zM65.35 57.949h2.56v2.56h-2.56zM68.422 57.949h2.561v2.56h-2.561z"/><path fill="#FF916E" d="M73.125 57.917h5.962v2.56h-5.962z"/><path fill="#ADEBF6" d="M73.125 54.558h5.962v2.56h-5.962z"/></g><g><path fill="#B2B2B2" d="M61.659 68.835a9.154 9.154 0 0 1-6.515-2.697 9.154 9.154 0 0 1-2.697-6.514c0-2.46.958-4.773 2.697-6.514a9.157 9.157 0 0 1 6.515-2.698c2.461 0 4.773.959 6.514 2.698a9.157 9.157 0 0 1 2.698 6.514c0 2.46-.959 4.774-2.698 6.514a9.15 9.15 0 0 1-6.514 2.697zm0-15.734a6.487 6.487 0 0 0-4.614 1.911 6.48 6.48 0 0 0-1.909 4.612c0 1.743.679 3.381 1.909 4.613a6.486 6.486 0 0 0 4.614 1.91c1.741 0 3.38-.678 4.613-1.91a6.49 6.49 0 0 0 1.909-4.613 6.485 6.485 0 0 0-1.909-4.612 6.482 6.482 0 0 0-4.613-1.911z"/><path fill="#B2B2B2" d="m43.866 75.517 11.276-11.283 1.902 1.9-11.277 11.283z"/></g><g><path fill="#FFF" d="M109.098 62.501v.919c0 .508.401.919.896.919h35.239a.908.908 0 0 0 .898-.919v-.919h-37.033z"/><path fill="#686868" d="M144.418 62.501V43.06c0-1.082-.856-1.958-1.913-1.958h-29.782c-1.056 0-1.913.876-1.913 1.958v19.441h33.608z"/><path fill="#E6E6E6" d="M112.479 42.957h30.271v18.041h-30.271z"/><path fill="#FFF" d="M128.107 42.038a.5.5 0 0 1-.493.505.5.5 0 0 1-.493-.505.5.5 0 0 1 .493-.506.5.5 0 0 1 .493.506z"/></g><g><path fill="#FFF" d="M116.407 143.982c-1.499 0-5.52.018-7.538-1.025-4.448-2.303-9.517.431-9.562 3.879h15.45l1.65-2.854z"/><path fill="#FFF" d="M84.721 143.982c1.499 0 5.519.018 7.537-1.025 4.449-2.303 9.517.431 9.562 3.879H86.37l-1.649-2.854z"/><path fill="#333" d="M115.423 146.292v1.33H101.9a.505.505 0 0 1-.476.341h-1.92a.502.502 0 0 1-.477-.341H85.506v-1.33h13.497l-.002.041c0 .277.227.503.504.503h1.92a.503.503 0 0 0 .502-.503l-.002-.041h13.498z"/></g><g><path fill="#333" d="M141.124 104.328h-12.667a.923.923 0 0 0-.924.925v16.675c0 .51.413.923.924.923h12.667a.923.923 0 0 0 .923-.923v-16.675a.924.924 0 0 0-.923-.925z"/><path fill="#FFF" d="M134.79 122.38a.372.372 0 1 1-.001-.743.372.372 0 0 1 .001.743zM129.181 106.119H140.4v14.941h-11.219z"/><path fill="#FF916E" d="M134.498 113.881v-4.774a4.49 4.49 0 0 0-4.19 4.476 4.486 4.486 0 0 0 8.965.299h-4.775z"/><path fill="#FFDB76" d="M135.271 113.283h3.707a4.2 4.2 0 0 0-2.117-3.347l-1.59 3.347z"/><path fill="#ADEBF6" d="M135.097 109.402v2.853l1.226-2.579a4.117 4.117 0 0 0-1.226-.274z"/></g></g></svg>