<?xml version="1.0" encoding="iso-8859-1"?>
<!-- Generator: Adobe Illustrator 22.0.1, SVG Export Plug-In . SVG Version: 6.00 Build 0)  -->
<svg version="1.1" xmlns="http://www.w3.org/2000/svg" xmlns:xlink="http://www.w3.org/1999/xlink" x="0px" y="0px"
	 viewBox="0 0 512 512" style="enable-background:new 0 0 512 512;" xml:space="preserve">
<g id="BULINE">
	<circle id="XMLID_203_" style="fill:#F78F8B;" cx="256" cy="256" r="256"/>
</g>
<g id="Icons">
	<g id="XMLID_122_">
		<g id="XMLID_375_">
			<path id="XMLID_377_" style="fill:#32314B;" d="M401.16,45.11h-46.41c-9.13,0-16.56,7.43-16.56,16.56
				c0,19.18-15.59,34.78-34.77,34.78h-18.36c-10.31,0-18.71,8.28-18.9,18.54c-0.01,0.12-0.01,0.25-0.01,0.37v8.92h-15v-9.33
				c0.22-18.51,15.35-33.5,33.91-33.5h18.36c10.9,0,19.77-8.87,19.77-19.78c0-17.4,14.16-31.56,31.56-31.56h21.79
				C385.05,34.65,393.27,39.66,401.16,45.11z"/>
		</g>
		<path id="XMLID_374_" style="fill:#27273D;" d="M279.525,152.946H231.77V129.4c0-7.983,6.471-14.454,14.454-14.454h18.847
			c7.983,0,14.454,6.471,14.454,14.454V152.946z"/>
		<path id="XMLID_373_" style="fill:#32314B;" d="M454.459,160.082c-17.011-44.088-66.541-66.038-110.629-49.028
			c-10.531,4.063-19.796,9.983-27.569,17.241c-12.175,11.368-28.386,17.411-45.043,17.411h-31.139
			c-16.657,0-32.868-6.043-45.043-17.411c-7.773-7.258-17.038-13.178-27.569-17.241c-44.088-17.011-93.618,4.94-110.629,49.028
			C39.827,204.17,15.23,374.341,59.318,391.351c21.764,8.397,56.193-22.098,87.528-60.436c15.543-19.017,38.9-29.926,63.461-29.926
			h90.683c24.561,0,47.918,10.909,63.461,29.926c31.335,38.339,65.764,68.834,87.527,60.436
			C496.066,374.341,471.469,204.17,454.459,160.082z"/>
		<circle id="XMLID_372_" style="fill:#27273D;" cx="135.501" cy="212.691" r="78.449"/>
		<circle id="XMLID_371_" style="fill:#27273D;" cx="375.796" cy="212.691" r="78.449"/>
		<circle id="XMLID_370_" style="fill:#BABABA;" cx="255.648" cy="189.279" r="26.255"/>
		<circle id="XMLID_369_" style="fill:#FFFFFF;" cx="255.648" cy="189.279" r="17.273"/>
		<path id="XMLID_368_" style="fill:#4F4F74;" d="M183.452,192.308h-15.029c-5.355,0-9.696-4.341-9.696-9.696v-15.028
			c0-5.355-4.341-9.696-9.696-9.696h-27.06c-5.355,0-9.696,4.341-9.696,9.696v15.028c0,5.355-4.341,9.696-9.696,9.696H87.55
			c-5.355,0-9.696,4.341-9.696,9.696v27.06c0,5.355,4.341,9.696,9.696,9.696h15.029c5.355,0,9.696,4.341,9.696,9.696v15.028
			c0,5.355,4.341,9.696,9.696,9.696h27.06c5.355,0,9.696-4.341,9.696-9.696v-15.028c0-5.355,4.341-9.696,9.696-9.696h15.029
			c5.355,0,9.696-4.341,9.696-9.696v-27.06C193.148,196.649,188.807,192.308,183.452,192.308z"/>
		<path id="XMLID_367_" style="fill:#666691;" d="M165.575,200.967h-9.426c-3.359,0-6.081-2.723-6.081-6.081v-9.426
			c0-3.359-2.723-6.081-6.081-6.081h-16.972c-3.359,0-6.081,2.723-6.081,6.081v9.426c0,3.359-2.723,6.081-6.081,6.081h-9.426
			c-3.359,0-6.081,2.723-6.081,6.081v16.972c0,3.359,2.723,6.081,6.081,6.081h9.426c3.359,0,6.081,2.723,6.081,6.081v9.426
			c0,3.359,2.723,6.081,6.081,6.081h16.972c3.359,0,6.081-2.723,6.081-6.081v-9.426c0-3.359,2.723-6.081,6.081-6.081h9.426
			c3.359,0,6.081-2.723,6.081-6.081v-16.972C171.657,203.69,168.934,200.967,165.575,200.967z"/>
		<circle id="XMLID_366_" style="fill:#F8D572;" cx="375.254" cy="163.787" r="24.551"/>
		<circle id="XMLID_365_" style="fill:#F9BD38;" cx="375.254" cy="163.787" r="20.36"/>
		<path id="XMLID_364_" style="fill:#E2C06D;" d="M364.975,163.787c0,8.473,4.29,15.943,10.82,20.354
			c0.671,0.455,1.365,0.877,2.084,1.263c1.425,0.769,2.934,1.401,4.512,1.877c-2.258,0.689-4.656,1.057-7.138,1.057
			c-13.56,0-24.551-10.991-24.551-24.551c0-0.213,0.003-0.422,0.009-0.635c0.003-0.138,0.006-0.278,0.015-0.416
			c0-0.021,0-0.042,0.003-0.066c0.003-0.093,0.009-0.189,0.015-0.281c0.722-12.91,11.422-23.153,24.509-23.153
			c2.482,0,4.88,0.368,7.138,1.057c-2.371,0.716-4.59,1.784-6.596,3.141C369.266,147.844,364.975,155.314,364.975,163.787z"/>
		<path id="XMLID_363_" style="fill:#DDA636;" d="M375.796,184.141c-0.18,0.003-0.362,0.006-0.542,0.006
			c-11.243,0-20.359-9.114-20.359-20.36c0-11.243,9.117-20.36,20.359-20.36c0.18,0,0.362,0.003,0.542,0.006
			c-6.53,4.41-10.82,11.88-10.82,20.354C364.975,172.26,369.266,179.73,375.796,184.141z"/>
		<g id="XMLID_358_">
			<circle id="XMLID_362_" style="fill:#3588CD;" cx="333.289" cy="211.792" r="24.551"/>
			<path id="XMLID_361_" style="fill:#3385BC;" d="M323.011,211.791c0,8.473,4.29,15.943,10.82,20.354
				c0.671,0.455,1.365,0.877,2.084,1.263c1.425,0.769,2.934,1.401,4.512,1.877c-2.258,0.689-4.656,1.057-7.138,1.057
				c-13.56,0-24.551-10.991-24.551-24.551c0-0.213,0.003-0.422,0.009-0.635c0.003-0.138,0.006-0.278,0.015-0.416
				c0-0.021,0-0.042,0.003-0.066c0.003-0.093,0.009-0.189,0.015-0.281c0.722-12.91,11.422-23.153,24.509-23.153
				c2.482,0,4.88,0.368,7.138,1.057c-2.371,0.716-4.59,1.784-6.596,3.141C327.301,195.848,323.011,203.318,323.011,211.791z"/>
			<circle id="XMLID_360_" style="fill:#366FCC;" cx="333.289" cy="211.792" r="20.36"/>
			<path id="XMLID_359_" style="fill:#3268B7;" d="M341.114,231.088c-2.03,0.69-4.21,1.06-6.48,1.06
				c-11.24,0-20.36-9.11-20.36-20.36c0-11.24,9.12-20.36,20.36-20.36c2.27,0,4.45,0.37,6.48,1.06c-8.07,2.7-13.88,10.33-13.88,19.3
				C327.234,220.768,333.044,228.388,341.114,231.088z"/>
		</g>
		<circle id="XMLID_357_" style="fill:#ED4F4F;" cx="420.164" cy="211.791" r="24.551"/>
		<circle id="XMLID_356_" style="fill:#DD1B1B;" cx="420.164" cy="211.791" r="20.36"/>
		<path id="XMLID_355_" style="fill:#CC4A4A;" d="M409.886,211.791c0,8.473,4.29,15.943,10.82,20.354
			c0.671,0.455,1.365,0.877,2.084,1.263c1.425,0.769,2.934,1.401,4.512,1.877c-2.258,0.689-4.656,1.057-7.138,1.057
			c-13.56,0-24.551-10.991-24.551-24.551c0-0.213,0.003-0.422,0.009-0.635c0.003-0.138,0.006-0.278,0.015-0.416
			c0-0.021,0-0.042,0.003-0.066c0.003-0.093,0.009-0.189,0.015-0.281c0.722-12.91,11.422-23.153,24.509-23.153
			c2.482,0,4.88,0.368,7.138,1.057c-2.371,0.716-4.59,1.784-6.596,3.141C414.176,195.848,409.886,203.318,409.886,211.791z"/>
		<path id="XMLID_354_" style="fill:#BC1B1B;" d="M420.706,232.145c-0.18,0.003-0.362,0.006-0.542,0.006
			c-11.243,0-20.36-9.114-20.36-20.36c0-11.243,9.117-20.36,20.36-20.36c0.18,0,0.362,0.003,0.542,0.006
			c-6.53,4.41-10.82,11.88-10.82,20.354S414.176,227.735,420.706,232.145z"/>
		<circle id="XMLID_353_" style="fill:#03E277;" cx="375.254" cy="255.105" r="24.551"/>
		<circle id="XMLID_352_" style="fill:#00B764;" cx="375.254" cy="255.105" r="20.36"/>
		<path id="XMLID_351_" style="fill:#05CC68;" d="M364.975,255.105c0,8.473,4.29,15.943,10.82,20.354
			c0.671,0.455,1.365,0.877,2.084,1.263c1.425,0.769,2.934,1.401,4.512,1.877c-2.258,0.689-4.656,1.057-7.138,1.057
			c-13.56,0-24.551-10.991-24.551-24.551c0-0.213,0.003-0.422,0.009-0.635c0.003-0.138,0.006-0.278,0.015-0.416
			c0-0.021,0-0.042,0.003-0.066c0.003-0.093,0.009-0.189,0.015-0.281c0.722-12.91,11.422-23.153,24.509-23.153
			c2.482,0,4.88,0.368,7.138,1.057c-2.371,0.716-4.59,1.784-6.596,3.141C369.266,239.162,364.975,246.632,364.975,255.105z"/>
		<path id="XMLID_350_" style="fill:#049E54;" d="M375.796,275.459c-0.18,0.003-0.362,0.006-0.542,0.006
			c-11.243,0-20.359-9.114-20.359-20.36c0-11.243,9.117-20.36,20.359-20.36c0.18,0,0.362,0.003,0.542,0.006
			c-6.53,4.41-10.82,11.88-10.82,20.354C364.975,263.578,369.266,271.048,375.796,275.459z"/>
		<path id="XMLID_349_" style="fill:#FFFFFF;" d="M245.648,279.656h-32.667c-1.657,0-3-1.343-3-3v-10.044c0-1.657,1.343-3,3-3
			h32.667c1.657,0,3,1.343,3,3v10.044C248.648,278.313,247.305,279.656,245.648,279.656z"/>
		<path id="XMLID_244_" style="fill:#FFFFFF;" d="M301.314,279.656h-32.667c-1.657,0-3-1.343-3-3v-10.044c0-1.657,1.343-3,3-3
			h32.667c1.657,0,3,1.343,3,3v10.044C304.314,278.313,302.971,279.656,301.314,279.656z"/>
	</g>
</g>
</svg>
