<svg xmlns="http://www.w3.org/2000/svg" viewBox="0 0 128 128" style="enable-background:new 0 0 128 128" xml:space="preserve"><path style="fill:#231f20" d="M102.264 128H25.736a5.821 5.821 0 0 1-5.815-5.815V5.815A5.822 5.822 0 0 1 25.736 0h76.527a5.821 5.821 0 0 1 5.815 5.815v116.369a5.82 5.82 0 0 1-5.814 5.816zM25.736 3.877a1.94 1.94 0 0 0-1.938 1.938v116.369a1.94 1.94 0 0 0 1.938 1.938h76.527a1.94 1.94 0 0 0 1.938-1.938V5.815a1.94 1.94 0 0 0-1.938-1.938H25.736zm58.719 48.718C82.505 49.671 64 30.798 64 30.798S45.495 49.671 43.546 52.595c-2.472 3.729-3.659 7.501-3.531 11.216.24 7.416 6.074 13.222 13.264 13.222 2.359 0 4.676-.636 6.696-1.808.678-.395 1.3-.833 1.893-1.342-.311 4.76-1.554 11.145-5.552 15.228h15.369c-3.998-4.068-5.227-10.453-5.537-15.214.579.494 1.215.946 1.879 1.328a13.374 13.374 0 0 0 6.696 1.808c7.204 0 13.024-5.806 13.264-13.222.126-3.715-1.06-7.487-3.532-11.216zM42.839 16.27c-.612-.918-6.422-6.843-6.422-6.843s-5.81 5.925-6.422 6.843c-.776 1.171-1.149 2.355-1.109 3.521.075 2.328 1.907 4.151 4.164 4.151a4.196 4.196 0 0 0 2.696-.989c-.098 1.495-.488 3.499-1.743 4.781h4.825c-1.255-1.277-1.641-3.282-1.738-4.776a4.196 4.196 0 0 0 2.692.985c2.262 0 4.089-1.823 4.164-4.151.041-1.167-.331-2.351-1.107-3.522zm42.322 96.564c.612.918 6.422 6.843 6.422 6.843s5.81-5.925 6.422-6.843c.776-1.171 1.149-2.355 1.109-3.521-.075-2.328-1.907-4.151-4.164-4.151a4.196 4.196 0 0 0-2.696.989c.098-1.495.488-3.499 1.743-4.781H89.17c1.255 1.277 1.641 3.282 1.738 4.776a4.196 4.196 0 0 0-2.692-.985c-2.262 0-4.089 1.823-4.164 4.151-.039 1.167.333 2.351 1.109 3.522z"/></svg>