<?xml version="1.0" encoding="iso-8859-1"?>
<!-- Generator: Adobe Illustrator 22.0.1, SVG Export Plug-In . SVG Version: 6.00 Build 0)  -->
<svg version="1.1" xmlns="http://www.w3.org/2000/svg" xmlns:xlink="http://www.w3.org/1999/xlink" x="0px" y="0px"
	 viewBox="0 0 128 128" style="enable-background:new 0 0 128 128;" xml:space="preserve">
<g id="_x31_0">
	<path style="fill:#F98878;" d="M5.349,35.165h33.899v91.199H5.349V35.165z M48.618,35.165v91.199h52.443V35.656h7.408v90.709
		h14.178V35.165H48.618z"/>
	<path style="fill:#231F20;" d="M3.715,33.535V128h120.571V33.535H3.715z M50.253,36.805h31.342v87.924H50.253V36.805z
		 M46.982,124.729h-6.105V36.805h6.105V124.729z M84.865,36.805h14.564v87.924H84.865V36.805z M102.7,36.805h4.133v87.924H102.7
		V36.805z M6.985,36.805h30.621v87.924H6.985V36.805z M121.015,124.729h-10.912V36.805h10.912V124.729z M39.788,32.971
		c1.683,0,3.438-0.296,5.22-0.901c9.515-3.241,17.36-8.909,21.726-12.522c3.85,3.188,11.92,9.181,21.714,12.522l0.003,0.001
		c6.249,2.125,12.161,0.444,15.826-4.485c3.839-5.165,4.968-14.225-1.166-22.821c-1.886-2.641-4.489-4.202-7.736-4.638
		c-9.617-1.284-22.562,7.8-28.64,12.616C60.65,7.923,47.707-1.163,38.084,0.123c-3.248,0.437-5.851,1.998-7.737,4.639
		c-6.14,8.588-5.016,17.646-1.179,22.812C31.79,31.106,35.564,32.971,39.788,32.971z M67.77,16.106
		c4.048-3.3,17.977-13.982,27.17-12.739c2.349,0.315,4.15,1.393,5.508,3.297c5.179,7.257,4.336,14.757,1.204,18.97
		c-2.817,3.787-7.242,5.003-12.15,3.339C79.226,25.467,70.906,18.852,67.806,16.17l-0.056-0.048L67.77,16.106z M33.007,6.664
		c1.361-1.904,3.164-2.983,5.513-3.299c0.498-0.067,1.009-0.099,1.535-0.099c9.133,0,21.814,9.719,25.648,12.841l0.019,0.015
		l-0.053,0.045c-3.89,3.346-11.886,9.46-21.714,12.807c-4.912,1.67-9.344,0.45-12.162-3.348
		C28.664,21.411,27.825,13.914,33.007,6.664z"/>
</g>
<g id="Layer_1">
</g>
</svg>
