<svg xmlns="http://www.w3.org/2000/svg" viewBox="0 0 48 48"><defs><style>.cls-1{fill:#4ac6b7;}.cls-2{fill:#d3dbef;}.cls-3{fill:#bfcae2;}.cls-4{fill:#231f20;}</style></defs><title>Insurance</title><g id="Insurance"><path class="cls-1" d="M42,26c0,14.6667-18,20-18,20S6,40.6667,6,26V9.9259A2,2,0,0,1,7.3054,8.05l16-5.9259a2,2,0,0,1,1.3893,0l16,5.9259A2,2,0,0,1,42,9.9259Z"/><path class="cls-2" d="M24.0049,42.8311C20.71,41.6152,9,36.5527,9,26V10.6221L24,5.0664l15,5.5557V26C39,36.6045,27.3057,41.626,24.0049,42.8311Z"/><path class="cls-3" d="M36,9.5109V26c0,9.3408-9.0706,14.3481-13.4888,16.2328.5925.2545,1.1036.4543,1.4937.5982C27.3057,41.626,39,36.6045,39,26V10.6221Z"/><path class="cls-1" d="M26,29H22a3.0033,3.0033,0,0,1-3-3,1,1,0,0,1,2,0,1.0013,1.0013,0,0,0,1,1h4a1.0013,1.0013,0,0,0,1-1V24a1.0013,1.0013,0,0,0-1-1H22a3.0033,3.0033,0,0,1-3-3V18a3.0033,3.0033,0,0,1,3-3h4a3.0033,3.0033,0,0,1,3,3,1,1,0,0,1-2,0,1.0013,1.0013,0,0,0-1-1H22a1.0013,1.0013,0,0,0-1,1v2a1.0013,1.0013,0,0,0,1,1h4a3.0033,3.0033,0,0,1,3,3v2A3.0033,3.0033,0,0,1,26,29Z"/><path class="cls-1" d="M24,17a1,1,0,0,1-1-1V14a1,1,0,0,1,2,0v2A1,1,0,0,1,24,17Z"/><path class="cls-1" d="M24,31a1,1,0,0,1-1-1V28a1,1,0,0,1,2,0v2A1,1,0,0,1,24,31Z"/><path class="cls-4" d="M41.042,7.1121l-16-5.9258a3.0111,3.0111,0,0,0-2.084,0l-16,5.9263A3.011,3.011,0,0,0,5,9.9255V26c0,15.2368,18.5288,20.9033,18.7158,20.959a1.005,1.005,0,0,0,.5684,0,35.3456,35.3456,0,0,0,9.2915-4.6411C39.7412,37.9788,43,32.3362,43,26V9.9255A3.0122,3.0122,0,0,0,41.042,7.1121ZM41,26C41,38.7542,26.2485,44.1946,24,44.949,21.7515,44.1946,7,38.7542,7,26V9.9255a1.0035,1.0035,0,0,1,.6523-.9375l16-5.9258a.9982.9982,0,0,1,.6953,0l16,5.9253A1.0043,1.0043,0,0,1,41,9.9255Z"/><path class="cls-4" d="M39.3472,9.6838l-15-5.5557a.9991.9991,0,0,0-.6943,0l-15,5.5557A1,1,0,0,0,8,10.6218V26c0,11.1265,11.9854,16.4136,15.6587,17.769a.9989.9989,0,0,0,.689.0015C28.02,42.4294,40,37.1863,40,26V10.6218A1,1,0,0,0,39.3472,9.6838ZM38,26c0,9.5728-10.2852,14.3535-13.9932,15.7632C20.2959,40.3381,10,35.52,10,26V11.3176L24,6.1326l14,5.1851Z"/><path class="cls-4" d="M23,14v1H22a3.0033,3.0033,0,0,0-3,3v2a3.0033,3.0033,0,0,0,3,3h4a1.0013,1.0013,0,0,1,1,1v2a1.0013,1.0013,0,0,1-1,1H22a1.0013,1.0013,0,0,1-1-1,1,1,0,0,0-2,0,3.0033,3.0033,0,0,0,3,3h1v1a1,1,0,0,0,2,0V29h1a3.0033,3.0033,0,0,0,3-3V24a3.0033,3.0033,0,0,0-3-3H22a1.0013,1.0013,0,0,1-1-1V18a1.0013,1.0013,0,0,1,1-1h4a1.0013,1.0013,0,0,1,1,1,1,1,0,0,0,2,0,3.0033,3.0033,0,0,0-3-3H25V14a1,1,0,0,0-2,0Z"/></g></svg>