<svg version="1.1" id="real_x5F_estate_1_" xmlns="http://www.w3.org/2000/svg" x="0" y="0" viewBox="0 0 128 128" style="enable-background:new 0 0 128 128" xml:space="preserve"><style>.st0{display:none}.st1{display:inline}.st2{fill:#0f0f0f}</style><g id="Rent_1_"><path class="st2" d="M38 58.6h-2v7h2c2.6 0 3.3-1.9 3.3-3.6 0-2-.8-3.4-3.3-3.4zm0 0h-2v7h2c2.6 0 3.3-1.9 3.3-3.6 0-2-.8-3.4-3.3-3.4zm0 0h-2v7h2c2.6 0 3.3-1.9 3.3-3.6 0-2-.8-3.4-3.3-3.4zm0 0h-2v7h2c2.6 0 3.3-1.9 3.3-3.6 0-2-.8-3.4-3.3-3.4zm72.7-22.3v6.9H86.5v-6.9H55.4v6.9H31.1v-6.9H17.3v51.9c0 3.8 3.1 6.9 6.9 6.9h93.4c3.8 0 6.9-3.1 6.9-6.9V36.3h-13.8zm-62 45h-6.9c-.5-.9-.7-2.4-.7-5.5 0-4.7-.6-5.7-2.7-5.7H36v11.2h-6.4V54.1h10.7c5.5 0 7.3 3.4 7.3 7.1 0 4-1.6 5.9-4.6 6.6v.1c4 .6 4.3 3.1 4.4 6.8.1 5.4.3 5.9 1.2 6.3v.3zm17.9 0H50.4V54.1h15.7v5.2h-9.3v5.4h8.8v5.2h-8.8v6.2h9.8v5.2zm23.2 0h-7.2L77 62.6h-.1v18.7h-5.7V54.1h7.4l5.2 17.7h.1V54.1h5.9v27.2zm21.6-22h-5.7v22h-6.4v-22h-5.7v-5.2h17.8v5.2zM38 58.6h-2v7h2c2.6 0 3.3-1.9 3.3-3.6 0-2-.8-3.4-3.3-3.4zm0 0h-2v7h2c2.6 0 3.3-1.9 3.3-3.6 0-2-.8-3.4-3.3-3.4zm0 0h-2v7h2c2.6 0 3.3-1.9 3.3-3.6 0-2-.8-3.4-3.3-3.4zm69.2-36.1V19H89.9v3.5h-38V19H34.6v3.5H10.4v-1.7c0-2.9-2.3-5.2-5.2-5.2S0 17.9 0 20.8v91.7h10.4V32.9h24.2v6.9h17.3v-6.9H90v6.9h17.3v-6.9H128V22.5h-20.8z" id="Base_1_"/></g></svg>