<svg xmlns="http://www.w3.org/2000/svg" viewBox="0 0 64 64"><g id="_09-Rent" data-name="09-Rent"><path d="M62.41,51.59A1.955,1.955,0,0,1,63,53a2.006,2.006,0,0,1-2,2H3a1.955,1.955,0,0,1-1.41-.59A1.955,1.955,0,0,1,1,53a2.006,2.006,0,0,1,2-2H61A1.955,1.955,0,0,1,62.41,51.59Z" style="fill:#966857"/><path d="M3,53H61a1.987,1.987,0,0,1,1.721,1A2,2,0,0,0,61,51H3a2.006,2.006,0,0,0-2,2,1.963,1.963,0,0,0,.279,1A2,2,0,0,1,3,53Z" style="fill:#966857"/><polygon points="56 21.24 32 8 8 21.24 3 24 3 19 11 14.59 19 10.17 32 3 61 19 61 24 56 21.24" style="fill:#ff936b"/><polygon points="32 5 8 18.24 3 21 3 24 8 21.24 32 8 56 21.24 61 24 61 21 56 18.24 32 5" style="fill:#ff7045"/><path d="M56,21.24V51H26V25H12V51H8V21.24L32,8ZM52,35V27a2.006,2.006,0,0,0-2-2H32a2.006,2.006,0,0,0-2,2v8a2.006,2.006,0,0,0,2,2H50A2.006,2.006,0,0,0,52,35Z" style="fill:#f7f7f7"/><polygon points="32 8 8 21.24 8 25.24 32 12 56 25.24 56 21.24 32 8" style="fill:#cfcfcf"/><path d="M52,31v4a2.006,2.006,0,0,1-2,2H43V31Z" style="fill:#a3d4ff"/><path d="M52,27v4H43V25h7A2.006,2.006,0,0,1,52,27Z" style="fill:#65b1fc"/><polygon points="43 31 43 37 39 37 39 31 39 25 43 25 43 31" style="fill:#b2876d"/><polygon points="43 31 43 37 41 37 41 31 41 25 43 25 43 31" style="fill:#966857"/><path d="M39,31v6H32a2.006,2.006,0,0,1-2-2V31Z" style="fill:#65b1fc"/><path d="M39,25v6H30V27a2.006,2.006,0,0,1,2-2Z" style="fill:#a3d4ff"/><rect x="12" y="25" width="14" height="26" style="fill:#f2d1a5"/><path d="M12,25v3h7a4,4,0,0,1,4,4V51h3V25Z" style="fill:#f2bb88"/><polygon points="20 1 20 5 19 5 11 5 10 5 10 1 20 1" style="fill:#ff936b"/><polygon points="20 3 20 5 19 5 11 5 10 5 10 3 20 3" style="fill:#ff7045"/><polygon points="19 5 19 10.17 11 14.59 11 5 19 5" style="fill:#b2876d"/><rect x="11" y="5" width="8" height="3" style="fill:#966857"/><path d="M24,63H59a4,4,0,0,0,4-4V47a4,4,0,0,0-4-4H24L17,53Z" style="fill:#ff936b"/><path d="M59,43H56a4,4,0,0,1,4,4V59a4,4,0,0,1-4,4h3a4,4,0,0,0,4-4V47A4,4,0,0,0,59,43Z" style="fill:#ff7045"/><path d="M35,51a3,3,0,0,0-3-3H28a1,1,0,0,0-1,1v9h2V54h2.323l1.748,4.372,1.858-.744-1.585-3.961A2.991,2.991,0,0,0,35,51Zm-6,1V50h3a1,1,0,0,1,0,2Z" style="fill:#f2f6fc"/><path d="M36,50v6a2,2,0,0,0,2,2h5V56H38V54h4V52H38V50h5V48H38A2,2,0,0,0,36,50Z" style="fill:#f2f6fc"/><path d="M50,53.513,46.848,48.47A1,1,0,0,0,45,49v9h2V52.487l3.152,5.043A1,1,0,0,0,52,57V48H50Z" style="fill:#f2f6fc"/><polygon points="60 48 54 48 54 50 56 50 56 58 58 58 58 50 60 50 60 48" style="fill:#f2f6fc"/><path d="M13,26H25V40h2V25a1,1,0,0,0-1-1H12a1,1,0,0,0-1,1V50H9V21.832L32,9.142l23,12.69V40h2V22.935l3.517,1.94A1,1,0,0,0,62,24V19a1,1,0,0,0-.517-.875l-29-16a.994.994,0,0,0-.966,0L20,8.479V6a1,1,0,0,0,1-1V1a1,1,0,0,0-1-1H10A1,1,0,0,0,9,1V5a1,1,0,0,0,1,1v8L2.517,18.125A1,1,0,0,0,2,19v5a1,1,0,0,0,1.483.875L7,22.935V50H3a3,3,0,0,0,0,6H15V54H3a1,1,0,0,1,0-2H15V50H13ZM11,2h8V4H11Zm1,4h6V9.582l-6,3.311ZM4,19.59,32,4.142,60,19.59v2.716L32.483,7.125a1,1,0,0,0-.966,0L4,22.306Z"/><path d="M32,24a3,3,0,0,0-3,3v8a3,3,0,0,0,3,3H50a3,3,0,0,0,3-3V27a3,3,0,0,0-3-3ZM42,36H40V26h2ZM32,26h6v4H31V27A1,1,0,0,1,32,26Zm-1,9V32h7v4H32A1,1,0,0,1,31,35Zm19,1H44V32h7v3A1,1,0,0,1,50,36Zm1-9v3H44V26h6A1,1,0,0,1,51,27Z"/><path d="M59,42H24a1,1,0,0,0-.819.427l-7,10a1,1,0,0,0,0,1.146l7,10A1,1,0,0,0,24,64H59a5.006,5.006,0,0,0,5-5V47A5.006,5.006,0,0,0,59,42Zm3,17a3,3,0,0,1-3,3H24.521l-6.3-9,6.3-9H59a3,3,0,0,1,3,3Z"/><path d="M35,51a3,3,0,0,0-3-3H28a1,1,0,0,0-1,1v9h2V54h2.323l1.748,4.372,1.858-.744-1.585-3.961A2.991,2.991,0,0,0,35,51Zm-6,1V50h3a1,1,0,0,1,0,2Z"/><path d="M36,50v6a2,2,0,0,0,2,2h5V56H38V54h4V52H38V50h5V48H38A2,2,0,0,0,36,50Z"/><path d="M50,53.513,46.848,48.47A1,1,0,0,0,45,49v9h2V52.487l3.152,5.043A1,1,0,0,0,52,57V48H50Z"/><polygon points="54 50 56 50 56 58 58 58 58 50 60 50 60 48 54 48 54 50"/></g></svg>