<?xml version="1.0" encoding="UTF-8"?>
<!DOCTYPE svg PUBLIC "-//W3C//DTD SVG 1.1//EN" "http://www.w3.org/Graphics/SVG/1.1/DTD/svg11.dtd">
<!-- Creator: CorelDRAW -->
<svg xmlns="http://www.w3.org/2000/svg" xml:space="preserve" width="2048px" height="2048px" style="shape-rendering:geometricPrecision; text-rendering:geometricPrecision; image-rendering:optimizeQuality; fill-rule:evenodd; clip-rule:evenodd"
viewBox="0 0 2048 2048"
 xmlns:xlink="http://www.w3.org/1999/xlink">
 <defs>
  <style type="text/css">
   <![CDATA[
    .fil0 {fill:#EC407A}
    .fil1 {fill:#FFFFFE}
   ]]>
  </style>
 </defs>
 <g id="Layer_x0020_1">
  <metadata id="CorelCorpID_0Corel-Layer"/>
  <circle class="fil0" cx="1024" cy="1024" r="1024"/>
  <g id="_374901000">
   <path id="_374901696" class="fil1" d="M1566.36 465.22l-749.908 290.07c-9.7441,3.76772 -17.6445,14.7236 -17.6445,24.4689l0 49.2638 311.855 -126.563c8.53938,-3.46654 17.6162,-5.4189 26.8477,-5.4189 1.30394,0 2.60315,0.0377953 3.89528,0.114567l328.245 -126.966c5.25237,-2.0315 9.51142,0.579922 9.51142,5.83347 0,7.09961 2.9126,12.437 7.60276,15.313 4.69016,2.87599 11.1543,3.28819 18.254,0.542126 5.25355,-2.0315 9.51261,0.578741 9.51261,5.83229l0 193.249c0,5.25237 -4.25906,11.1591 -9.51261,13.1906 -7.09961,2.74607 -13.5638,8.15906 -18.254,14.6634 -4.69016,6.50552 -7.60276,14.0953 -7.60276,21.1949 0,5.25237 -4.25906,11.1591 -9.51142,13.1906l-267.479 103.462 0 67.5591 364.188 -140.87c9.74528,-3.7689 17.6457,-14.7248 17.6457,-24.4701l0 -382.838c0,-9.7441 -7.9004,-14.589 -17.6457,-10.8201z"/>
   <path id="_374902008" class="fil1" d="M1461.15 592.497l-292.017 112.954c1.59449,0.923623 3.15591,1.92284 4.67835,2.99528 2.75906,1.94173 5.3315,4.08307 7.71142,6.40394 3.25276,-1.55079 6.54804,-2.97638 9.87639,-4.26378 30.0248,-11.6126 57.2079,-9.9567 76.8851,2.10827 19.6772,12.0662 31.8484,34.5425 31.8484,64.5662 0,30.0236 -12.1725,61.9158 -31.8484,89.2052 -17.2961,23.9835 -40.3926,44.4142 -66.1193,56.8949l0 14.2748 258.985 -100.178c1.86142,-9.2693 6.17363,-18.5965 12.1583,-26.8937 5.98229,-8.29725 13.6406,-15.5717 22.1917,-20.7402l0 -176.264c-8.55119,1.44803 -16.2095,0.0956694 -22.1917,-3.57284 -5.98465,-3.66851 -10.2969,-9.65906 -12.1583,-17.4898zm-132.887 199.695l141.045 -54.5575 0 19.024 -141.045 54.5587 0 -19.0252zm0 -70.6477l141.045 -54.5575 0 19.0228 -141.045 54.5575 0 -19.0228z"/>
   <path id="_374902272" class="fil1" d="M1254.84 731.347c-15.9768,-9.79725 -37.9571,-11.276 -62.2654,-2.18268 1.5189,2.65866 2.86418,5.43189 4.02874,8.30079 0.817323,2.01378 1.53898,4.05945 2.17087,6.12993l1.25551 -0.485433 0 5.13307c0.21378,0.907087 0.411024,1.81772 0.592914,2.73071 11.876,-3.78662 20.9551,-4.42323 27.267,-1.94646 6.44528,2.47914 10.6394,7.69016 12.5835,15.6331l-30.2776 16.5165c-1.49882,-3.28229 -2.88662,-5.41182 -4.11024,-6.43819 -0.887009,-0.745276 -2.18504,-1.33347 -3.91418,-1.76457l0 22.8591c15.3142,-1.70788 25.6028,-1.24134 30.9142,1.37835 7.30512,3.72874 10.9713,10.6453 10.9713,20.7555 0,5.88898 -1.30512,11.837 -3.9437,17.8028 -2.63977,5.93623 -6.00119,11.3752 -10.0843,16.2614 -4.11024,4.89449 -8.47087,8.97048 -13.0819,12.2539 -4.11024,2.92677 -9.03426,5.68229 -14.7756,8.25001l0 31.6866c20.4709,-10.3654 38.8229,-26.8051 52.6689,-46.0052 16.2331,-22.5118 26.2748,-48.8244 26.2748,-73.5981 0,-24.7725 -10.0417,-43.3181 -26.2748,-53.2713z"/>
   <path id="_374901720" class="fil1" d="M1210.64 828.059c-1.54961,-1.23662 -4.36654,-1.85788 -8.47087,-1.89567l0 24.704c3.53386,-2.40945 6.20552,-4.95355 7.99843,-7.62638 2.1378,-3.1878 3.22205,-6.27402 3.22205,-9.19135 0,-2.55473 -0.916536,-4.53426 -2.74961,-5.99056z"/>
   <path id="_374901336" class="fil1" d="M1196.82 1170.2l94.5414 0 0 35.974 -94.5414 0 0 44.0008c0,18.2209 -6.13229,36.6296 -15.8799,51.9402 -9.83268,15.4429 -24.1536,28.8921 -41.2571,35.8323l-46.6807 18.9449 198.359 0 0 35.974 -286.996 0 -471.094 191.19 735.694 0c16.0701,0 30.6662,-6.55985 41.237,-17.1319 10.5709,-10.5697 17.1307,-25.1669 17.1307,-41.2382l0 -483.133c0,-13.8756 -4.89095,-26.654 -13.0323,-36.6886l-117.481 45.4418 0 118.893z"/>
   <path id="_374901504" class="fil1" d="M997.458 973.42l124.42 -58.4067 -0.0295276 -0.0637796c8.99174,-4.22126 19.7032,-0.35315 23.9244,8.63859 1.20945,2.57599 1.75394,5.29252 1.70433,7.95709l0 125.588c0,7.77993 -4.94055,14.4071 -11.8547,16.9146l-124.421 58.4067 0.0307087 0.0637796c-8.99174,4.22008 -19.7043,0.35315 -23.9244,-8.63859 -1.20945,-2.57599 -1.75394,-5.2937 -1.70551,-7.95827l0 -125.588c0,-7.77993 4.94174,-14.4071 11.8559,-16.9134zm181.376 276.753l0 -483.131c0,-7.6689 -1.37126,-14.6764 -3.8563,-20.8016 -3.1937,-7.86615 -8.21221,-14.2217 -14.5949,-18.7146 -6.60355,-4.64764 -14.3894,-7.15276 -22.8768,-7.15276 -5.79213,0 -11.8819,1.19291 -18.0756,3.70512l-643.327 261.091c-7.04292,2.4378 -12.1004,9.12757 -12.1004,16.9996l0 563.548c-0.0484252,2.36693 0.373229,4.78229 1.31929,7.11497 3.73583,9.20434 14.2264,13.6382 23.4307,9.90237l-0.00826772 -0.0188977 644.175 -261.435c13.0299,-5.2878 24.6402,-15.9354 32.8477,-28.826 8.06221,-12.6626 13.0665,-27.7748 13.0665,-42.2811z"/>
  </g>
 </g>
</svg>
