<?xml version="1.0" encoding="utf-8"?>
<!-- Generator: Adobe Illustrator 22.1.0, SVG Export Plug-In . SVG Version: 6.00 Build 0)  -->
<svg version="1.1" id="Icon_Set" xmlns="http://www.w3.org/2000/svg" xmlns:xlink="http://www.w3.org/1999/xlink" x="0px" y="0px"
	 viewBox="0 0 512 512" style="enable-background:new 0 0 512 512;" xml:space="preserve">
<style type="text/css">
	.st0{fill:#F0C48A;}
	.st1{fill:#FD919E;}
	.st2{fill:#4C4372;}
	.st3{fill:#D3E6F8;}
	.st4{fill:#A4CFF2;}
	.st5{fill:#7BABF1;}
	.st6{fill:#FFFFFF;}
	.st7{fill:#E8677D;}
	.st8{fill:none;stroke:#4C4372;stroke-width:12;stroke-linecap:round;stroke-linejoin:round;stroke-miterlimit:10;}
</style>
<g id="Savings">
	<g>
		<g>
			<circle class="st0" cx="256" cy="256" r="207"/>
		</g>
	</g>
	<g>
		<g>
			<path class="st3" d="M280.729,187.785h-67.24v-2.443c0-21.375-17.328-38.704-38.704-38.704h0v44.336
				c-30.99,8.127-55.943,31.159-66.713,60.986H84.952c-5.982,0-10.832,4.85-10.832,10.832v44.347c0,5.982,4.85,10.832,10.832,10.832
				h23.122c8.319,23.019,25.087,41.996,46.56,53.194v51.19h45.66v-40.209h81.004v40.209h45.66v-51.19
				c30.833-16.08,51.976-48.193,52.315-85.294C379.765,231.925,334.677,187.785,280.729,187.785z"/>
		</g>
		<g>
			<g>
				<path class="st4" d="M175.741,422.355h24.553v-40.209h0c-13.56,0-24.553,10.993-24.553,24.553V422.355z"/>
			</g>
			<g>
				<path class="st4" d="M280.729,187.785h-24.553c53.948,0,99.036,44.14,98.543,98.086c-0.273,29.887-14.046,56.537-35.509,74.177
					c-10.494,8.625-16.805,21.313-16.805,34.897v27.411h24.553v-51.19c30.834-16.08,51.976-48.193,52.315-85.295
					C379.765,231.925,334.677,187.785,280.729,187.785z"/>
			</g>
		</g>
		<g>
			<path class="st2" d="M326.958,428.355h-45.661c-3.313,0-6-2.686-6-6v-34.209h-69.004v34.209c0,3.314-2.687,6-6,6h-45.66
				c-3.313,0-6-2.686-6-6V374.73c-20.237-11.474-35.912-29.287-44.679-50.759H84.952c-9.281,0-16.832-7.551-16.832-16.832v-44.347
				c0-9.281,7.551-16.832,16.832-16.832h19.001c11.648-28.535,35.438-50.363,64.833-59.507v-39.815c0-3.314,2.687-6,6-6
				c23.452,0,42.744,18.155,44.563,41.147h61.38c28.144,0,54.644,11.102,74.619,31.26c19.546,19.725,30.173,45.608,29.924,72.881
				c-0.337,36.948-20.286,70.643-52.314,88.805v47.625C332.958,425.669,330.271,428.355,326.958,428.355z M287.297,416.355h33.661
				v-45.19c0-2.236,1.243-4.286,3.226-5.32c29.972-15.631,48.781-46.296,49.089-80.029c0.22-24.047-9.173-46.891-26.448-64.325
				c-17.705-17.867-41.177-27.706-66.095-27.706h-67.24c-3.314,0-6-2.686-6-6v-2.443c0-15.983-11.527-29.326-26.704-32.152v37.784
				c0,2.728-1.84,5.112-4.478,5.804c-29.001,7.606-52.4,28.996-62.592,57.22c-0.859,2.378-3.116,3.962-5.644,3.962H84.952
				c-2.665,0-4.832,2.168-4.832,4.832v44.347c0,2.664,2.167,4.832,4.832,4.832h23.122c2.527,0,4.784,1.584,5.643,3.961
				c7.791,21.556,23.307,39.282,43.692,49.913c1.982,1.034,3.226,3.084,3.226,5.32v45.19h33.66v-34.209c0-3.314,2.687-6,6-6h81.004
				c3.313,0,6,2.686,6,6V416.355z"/>
		</g>
		<g>
			<path class="st2" d="M167.045,257.271c-3.313,0-6-2.686-6-6v-18.517c0-3.314,2.687-6,6-6s6,2.686,6,6v18.517
				C173.045,254.584,170.359,257.271,167.045,257.271z"/>
		</g>
		<g>
			<path class="st2" d="M291.384,218.212h-64.686c-3.313,0-6-2.686-6-6s2.687-6,6-6h64.686c3.313,0,6,2.686,6,6
				S294.697,218.212,291.384,218.212z"/>
		</g>
		<g>
			<path class="st2" d="M416.404,290.966c-15.15,0-27.477-12.326-27.477-27.477c0-15.151,12.326-27.477,27.477-27.477
				s27.477,12.326,27.477,27.477C443.88,278.64,431.554,290.966,416.404,290.966z M416.404,248.012
				c-8.534,0-15.477,6.943-15.477,15.477c0,8.534,6.943,15.477,15.477,15.477s15.477-6.943,15.477-15.477
				C431.88,254.955,424.938,248.012,416.404,248.012z"/>
		</g>
		<g>
			<path class="st2" d="M416.404,290.966h-37.131c-3.313,0-6-2.686-6-6s2.687-6,6-6h37.131c3.313,0,6,2.686,6,6
				S419.717,290.966,416.404,290.966z"/>
		</g>
		<g>
			<path class="st2" d="M437.88,269.489c-3.313,0-6-2.686-6-6V226.66c0-3.314,2.687-6,6-6s6,2.686,6,6v36.829
				C443.88,266.803,441.194,269.489,437.88,269.489z"/>
		</g>
		<g>
			<circle class="st1" cx="258.834" cy="127.392" r="37.748"/>
		</g>
		<g>
			<path class="st2" d="M258.834,171.14c-24.123,0-43.748-19.625-43.748-43.748s19.625-43.748,43.748-43.748
				s43.748,19.625,43.748,43.748S282.957,171.14,258.834,171.14z M258.834,95.645c-17.506,0-31.748,14.242-31.748,31.748
				c0,17.506,14.242,31.748,31.748,31.748s31.748-14.242,31.748-31.748C290.582,109.886,276.34,95.645,258.834,95.645z"/>
		</g>
		<g>
			<g>
				<path class="st2" d="M259.365,104.404c1.274,0,2.283,1.009,2.283,2.283v1.168c3.133,0.372,5.787,1.38,8.229,2.92
					c0.849,0.478,1.592,1.274,1.592,2.548c0,1.646-1.327,2.92-2.973,2.92c-0.531,0-1.062-0.159-1.593-0.478
					c-1.858-1.115-3.663-1.911-5.468-2.336v10.193c8.07,2.017,11.521,5.256,11.521,10.936c0,5.84-4.566,9.715-11.308,10.352v3.185
					c0,1.274-1.009,2.283-2.283,2.283c-1.274,0-2.336-1.009-2.336-2.283v-3.292c-3.982-0.425-7.645-1.858-10.884-4.141
					c-0.902-0.584-1.433-1.433-1.433-2.548c0-1.646,1.274-2.92,2.92-2.92c0.637,0,1.275,0.212,1.752,0.584
					c2.495,1.805,4.937,3.026,7.857,3.557v-10.459c-7.751-2.018-11.361-4.937-11.361-10.936c0-5.681,4.513-9.609,11.149-10.14
					v-1.115C257.029,105.413,258.091,104.404,259.365,104.404z M257.241,122.508v-9.397c-3.398,0.319-5.097,2.123-5.097,4.46
					C252.145,119.8,253.153,121.181,257.241,122.508z M261.435,129.887v9.662c3.398-0.372,5.256-2.07,5.256-4.619
					C266.691,132.595,265.524,131.162,261.435,129.887z"/>
			</g>
		</g>
	</g>
</g>
</svg>
