<?xml version="1.0" encoding="utf-8"?>
<!-- Generator: Adobe Illustrator 24.0.0, SVG Export Plug-In . SVG Version: 6.00 Build 0)  -->
<svg version="1.1" id="Layer_1" xmlns="http://www.w3.org/2000/svg" xmlns:xlink="http://www.w3.org/1999/xlink" x="0px" y="0px"
	 viewBox="0 0 256 256" enable-background="new 0 0 256 256" xml:space="preserve">
<g>
	<path fill="#CECECE" d="M32.035,209.711c-7.535,0-13.665-6.13-13.665-13.665V72.27c0-7.535,6.13-13.665,13.665-13.665h191.931
		c7.535,0,13.665,6.13,13.665,13.665v123.776c0,7.535-6.13,13.665-13.665,13.665H32.035z"/>
	<g>
		<path fill="#E2E2E2" d="M223.965,58.606h-14.667c7.534,0,13.665,6.13,13.665,13.665v123.776c0,7.534-6.13,13.665-13.665,13.665
			h14.667c7.535,0,13.665-6.13,13.665-13.665V72.27C237.63,64.736,231.5,58.606,223.965,58.606z"/>
	</g>
	<g>
		<path fill="#AFAFAF" d="M32.035,58.606h14.667c-7.534,0-13.665,6.13-13.665,13.665v123.776c0,7.534,6.13,13.665,13.665,13.665
			H32.035c-7.535,0-13.665-6.13-13.665-13.665V72.27C18.37,64.736,24.5,58.606,32.035,58.606z"/>
	</g>
	<path fill="#63BCE7" d="M229.221,72.294v123.728c0,2.916-2.364,5.28-5.28,5.28H32.059c-2.916,0-5.28-2.364-5.28-5.28V72.294
		c0-2.916,2.364-5.28,5.28-5.28h191.882C226.857,67.014,229.221,69.378,229.221,72.294z"/>
	<g>
		<path fill="#63E2E7" d="M223.941,67.014h-14.667c2.916,0,5.28,2.364,5.28,5.28v123.728c0,2.916-2.364,5.28-5.28,5.28h14.667
			c2.916,0,5.28-2.364,5.28-5.28V72.294C229.221,69.378,226.857,67.014,223.941,67.014z"/>
	</g>
	<g>
		<path fill="#6377E7" d="M32.059,67.014h14.667c-2.916,0-5.28,2.364-5.28,5.28v123.728c0,2.916,2.364,5.28,5.28,5.28H32.059
			c-2.916,0-5.28-2.364-5.28-5.28V72.294C26.779,69.378,29.143,67.014,32.059,67.014z"/>
	</g>
	<path fill="#CECECE" d="M128,209.711H8.667l3.053,7.024c2.751,6.329,8.995,10.423,15.896,10.423H128h100.385
		c6.901,0,13.145-4.094,15.896-10.423l3.053-7.024H128z"/>
	<g>
		<path fill="#E2E2E2" d="M232.667,209.711l-3.053,7.024c-2.751,6.329-8.995,10.423-15.896,10.423h14.667
			c6.901,0,13.145-4.094,15.896-10.423l3.053-7.024H232.667z"/>
	</g>
	<g>
		<path fill="#AFAFAF" d="M23.333,209.711l3.053,7.024c2.751,6.329,8.995,10.423,15.896,10.423H27.615
			c-6.901,0-13.145-4.094-15.896-10.423l-3.053-7.024H23.333z"/>
	</g>
	<path fill="#707070" d="M82.442,209.711l4.22,5.388c1.649,2.106,4.175,3.336,6.85,3.336h68.975c2.675,0,5.201-1.23,6.85-3.336
		l4.221-5.388H82.442z"/>
	<polygon fill="#CECECE" points="194.957,47.947 164.878,17.869 61.043,17.869 61.043,201.302 194.957,201.302 	"/>
	<g>
		<polygon fill="#E2E2E2" points="164.878,17.869 150.211,17.869 180.29,47.947 180.29,201.302 194.957,201.302 194.957,47.947 		
			"/>
	</g>
	<g>
		<rect x="61.043" y="17.869" fill="#AFAFAF" width="14.667" height="183.434"/>
	</g>
	<circle fill="#F8AF23" cx="128" cy="91.632" r="39.634"/>
	<g>
		<path fill="#3F3679" d="M146.972,91.61v13.021c0,1.015-0.38,1.895-1.141,2.64c-0.761,0.746-1.663,1.119-2.707,1.119h-11.455v9.172
			c0,1.044-0.373,1.931-1.118,2.663c-0.746,0.731-1.626,1.096-2.641,1.096c-1.073,0-1.984-0.365-2.729-1.096
			c-0.746-0.731-1.119-1.618-1.119-2.663V108.3h-11.365c-1.015,0-1.895-0.365-2.64-1.096c-0.746-0.731-1.119-1.618-1.119-2.663
			c0-1.044,0.365-1.931,1.096-2.663c0.731-0.73,1.618-1.096,2.663-1.096h26.578v-5.414h-26.489c-1.044,0-1.931-0.358-2.662-1.074
			c-0.732-0.716-1.097-1.611-1.097-2.685V78.634c0-1.044,0.365-1.931,1.097-2.663c0.73-0.73,1.617-1.096,2.662-1.096h11.275v-9.173
			c0-1.014,0.351-1.895,1.052-2.641c0.701-0.745,1.648-1.118,2.841-1.118c1.014,0,1.886,0.366,2.618,1.096
			c0.73,0.731,1.096,1.618,1.096,2.663v9.173h11.544c1.044,0,1.946,0.373,2.707,1.118c0.761,0.746,1.141,1.626,1.141,2.641
			c0,1.044-0.38,1.946-1.141,2.707c-0.761,0.761-1.663,1.141-2.707,1.141h-26.578v5.369h26.489c1.044,0,1.946,0.374,2.707,1.119
			C146.591,89.716,146.972,90.596,146.972,91.61z"/>
	</g>
	<g>
		<path fill="#F8AF23" d="M193.308,168.132L193.308,168.132c-4.044,0-7.323,3.279-7.323,7.323v-3.33
			c0-4.032-3.154-7.491-7.186-7.565c-4.107-0.075-7.46,3.232-7.46,7.322v-3.193c0-4.044-3.279-7.323-7.323-7.323h0
			c-4.044,0-7.323,3.279-7.323,7.323V140.5c0-4.044-3.279-7.323-7.323-7.323h0c-4.044,0-7.323,3.279-7.323,7.323v52.698
			l-9.025-9.025c-2.851-2.851-7.527-3.066-10.43-0.268c-2.957,2.851-2.99,7.56-0.098,10.452l16.693,16.693
			c1.831,1.831,2.86,4.315,2.86,6.904v9.204h51.742v-7.906l3.711-6.349c2.05-3.508,3.131-7.499,3.131-11.562v-25.887
			C200.631,171.41,197.352,168.132,193.308,168.132z"/>
		<g>
			<path fill="#3F3679" d="M245.656,217.333l3.053-7.023c0.201-0.464,0.155-0.997-0.122-1.42c-0.276-0.423-0.748-0.678-1.254-0.678
				h-14.351c3.722-2.766,6.148-7.182,6.148-12.165V72.271c0-8.362-6.803-15.165-15.164-15.165h-27.509v-9.158
				c0-0.397-0.158-0.779-0.439-1.061l-30.079-30.079c-0.281-0.281-0.663-0.439-1.061-0.439H61.043c-0.828,0-1.5,0.672-1.5,1.5
				v39.237H32.034c-8.361,0-15.164,6.803-15.164,15.165v123.776c0,4.983,2.426,9.399,6.148,12.165H8.667
				c-0.506,0-0.978,0.255-1.254,0.678c-0.277,0.423-0.323,0.956-0.122,1.42l3.053,7.023c1.517,3.491,4.013,6.351,7.08,8.325H9.32
				c-0.828,0-1.5,0.672-1.5,1.5s0.672,1.5,1.5,1.5h18.295h114.433h51.741h34.596h18.295c0.828,0,1.5-0.672,1.5-1.5
				s-0.672-1.5-1.5-1.5h-8.104C241.644,223.684,244.139,220.824,245.656,217.333z M223.966,60.105
				c6.707,0,12.164,5.457,12.164,12.165v123.776c0,6.708-5.457,12.165-12.164,12.165h-22.834c0.516-1.759,0.84-3.572,0.951-5.409
				h21.859c3.738,0,6.779-3.042,6.779-6.78V72.294c0-3.738-3.041-6.779-6.779-6.779h-27.484v-5.409H223.966z M166.378,21.489
				l24.958,24.958h-24.958V21.489z M196.457,68.515h27.484c2.084,0,3.779,1.695,3.779,3.779v123.729c0,2.084-1.695,3.78-3.779,3.78
				h-21.811v-24.349c0-3.754-2.361-6.959-5.674-8.231V68.515z M62.543,19.368h100.835v28.579c0,0.828,0.672,1.5,1.5,1.5h28.579
				V166.64c-0.05-0.001-0.099-0.008-0.149-0.008c-2.454,0-4.678,1.007-6.278,2.63c-1.159-3.536-4.398-6.132-8.202-6.202
				c-2.42-0.033-4.644,0.855-6.347,2.527c-0.051,0.05-0.101,0.1-0.149,0.15c-0.398-1.118-1.018-2.129-1.803-2.988h2.133
				c0.828,0,1.5-0.672,1.5-1.5s-0.672-1.5-1.5-1.5h-14.468v-8.839h14.468c0.828,0,1.5-0.672,1.5-1.5s-0.672-1.5-1.5-1.5h-14.468
				v-7.41c0-4.865-3.958-8.823-8.823-8.823c-4.864,0-8.822,3.958-8.822,8.823v7.41H83.339c-0.828,0-1.5,0.672-1.5,1.5
				s0.672,1.5,1.5,1.5h57.209v8.839H83.339c-0.828,0-1.5,0.672-1.5,1.5s0.672,1.5,1.5,1.5h57.209v8.839H83.339
				c-0.828,0-1.5,0.672-1.5,1.5s0.672,1.5,1.5,1.5h57.209v8.839h-6.15l-0.315-0.314c-3.472-3.475-9.095-3.601-12.531-0.287
				c-0.2,0.192-0.387,0.395-0.566,0.602H83.339c-0.828,0-1.5,0.672-1.5,1.5s0.672,1.5,1.5,1.5h35.95
				c-0.278,0.851-0.43,1.749-0.438,2.671c-0.022,2.388,0.896,4.632,2.584,6.32l4.385,4.385H62.543V19.368z M140.548,186.427v3.149
				l-3.15-3.149H140.548z M32.059,199.803c-2.084,0-3.779-1.696-3.779-3.78V72.294c0-2.084,1.695-3.779,3.779-3.779h27.484v131.288
				H32.059z M19.87,196.047V72.271c0-6.708,5.457-12.165,12.164-12.165h27.509v5.409H32.059c-3.738,0-6.779,3.041-6.779,6.779
				v123.729c0,3.738,3.041,6.78,6.779,6.78h28.984h67.776l5.409,5.409H82.442H32.034C25.327,208.212,19.87,202.755,19.87,196.047z
				 M137.229,211.212l0.898,0.898c1.318,1.318,2.129,3.004,2.352,4.824H93.513c-2.229,0-4.296-1.006-5.67-2.76l-2.32-2.963h51.538
				H137.229z M15.435,219.935h29.141c0.828,0,1.5-0.672,1.5-1.5s-0.672-1.5-1.5-1.5H13.478c-0.132-0.263-0.264-0.525-0.382-0.797
				l-2.142-4.926h21.08h49.678l3.769,4.813c1.946,2.485,4.874,3.91,8.031,3.91h47.035v5.724H27.615
				C22.828,225.658,18.395,223.501,15.435,219.935z M143.548,225.658v-7.704c0-3.009-1.172-5.837-3.3-7.965l-16.692-16.692
				c-1.114-1.114-1.72-2.596-1.705-4.172c0.014-1.574,0.647-3.045,1.783-4.14c2.269-2.19,6.005-2.075,8.328,0.248l9.025,9.024
				c0.43,0.431,1.076,0.559,1.635,0.325c0.561-0.232,0.926-0.779,0.926-1.386V140.5c0-3.211,2.612-5.823,5.822-5.823
				c3.211,0,5.823,2.612,5.823,5.823v28.189v9.96c0,0.828,0.672,1.5,1.5,1.5s1.5-0.672,1.5-1.5v-9.96
				c0-3.211,2.612-5.823,5.823-5.823c3.21,0,5.822,2.612,5.822,5.823v3.192v9.358c0,0.828,0.672,1.5,1.5,1.5s1.5-0.672,1.5-1.5
				v-9.358c0-1.575,0.619-3.051,1.743-4.154c1.125-1.104,2.629-1.729,4.19-1.668c3.15,0.058,5.713,2.778,5.713,6.065v3.329v9.189
				c0,0.828,0.672,1.5,1.5,1.5s1.5-0.672,1.5-1.5v-9.189c0-3.21,2.612-5.822,5.822-5.822c3.211,0,5.823,2.612,5.823,5.822v25.888
				c0,3.794-1.012,7.53-2.926,10.805l-3.711,6.35c-0.135,0.229-0.205,0.491-0.205,0.757v6.405H143.548z M228.385,225.658h-33.096
				v-5.724h5.866c0.828,0,1.5-0.672,1.5-1.5s-0.672-1.5-1.5-1.5h-4.274l1.914-3.274c0.463-0.792,0.87-1.613,1.239-2.448h23.932
				h21.08l-2.142,4.926c-0.118,0.271-0.25,0.534-0.382,0.797h-31.099c-0.828,0-1.5,0.672-1.5,1.5s0.672,1.5,1.5,1.5h29.141
				C237.605,223.501,233.172,225.658,228.385,225.658z"/>
			<path fill="#3F3679" d="M65.22,216.935H54.845c-0.828,0-1.5,0.672-1.5,1.5s0.672,1.5,1.5,1.5H65.22c0.828,0,1.5-0.672,1.5-1.5
				S66.048,216.935,65.22,216.935z"/>
			<path fill="#3F3679" d="M27.323,236.632H9.32c-0.828,0-1.5,0.672-1.5,1.5s0.672,1.5,1.5,1.5h18.003c0.828,0,1.5-0.672,1.5-1.5
				S28.151,236.632,27.323,236.632z"/>
			<path fill="#3F3679" d="M246.68,236.632h-18.003c-0.828,0-1.5,0.672-1.5,1.5s0.672,1.5,1.5,1.5h18.003c0.828,0,1.5-0.672,1.5-1.5
				S247.508,236.632,246.68,236.632z"/>
			<path fill="#3F3679" d="M218.479,236.632H37.521c-0.828,0-1.5,0.672-1.5,1.5s0.672,1.5,1.5,1.5h180.959
				c0.828,0,1.5-0.672,1.5-1.5S219.308,236.632,218.479,236.632z"/>
			<path fill="#3F3679" d="M128,132.766c22.682,0,41.134-18.452,41.134-41.133c0-22.682-18.452-41.134-41.134-41.134
				S86.866,68.951,86.866,91.633C86.866,114.313,105.318,132.766,128,132.766z M128,53.499c21.027,0,38.134,17.106,38.134,38.134
				c0,21.026-17.106,38.133-38.134,38.133s-38.134-17.106-38.134-38.133C89.866,70.605,106.973,53.499,128,53.499z"/>
		</g>
	</g>
</g>
</svg>
