<svg xmlns="http://www.w3.org/2000/svg" viewBox="0 0 48 48"><defs><style>.cls-1{fill:#d3dbef;}.cls-2{fill:#bfcae2;}.cls-3{fill:#8491c1;}.cls-4{fill:#231f20;}</style></defs><title>Tax</title><g id="Tax"><path class="cls-1" d="M39,46H9a2,2,0,0,1-2-2V4A2,2,0,0,1,9,2H35V6a2,2,0,0,0,2,2h4V44A2,2,0,0,1,39,46Z"/><path class="cls-2" d="M38,8V44a2,2,0,0,1-2,2h3a2,2,0,0,0,2-2V8Z"/><path class="cls-3" d="M41,8H37a2,2,0,0,1-2-2V2Z"/><path class="cls-3" d="M24,36H14a1,1,0,0,1,0-2H24a1,1,0,0,1,0,2Z"/><path class="cls-3" d="M34,41H14a1,1,0,0,1,0-2H34a1,1,0,0,1,0,2Z"/><path class="cls-3" d="M18.5,19A3.5,3.5,0,1,1,22,15.5,3.5042,3.5042,0,0,1,18.5,19Zm0-5A1.5,1.5,0,1,0,20,15.5,1.5016,1.5016,0,0,0,18.5,14Z"/><path class="cls-3" d="M29.5,28A3.5,3.5,0,1,1,33,24.5,3.5042,3.5042,0,0,1,29.5,28Zm0-5A1.5,1.5,0,1,0,31,24.5,1.5016,1.5016,0,0,0,29.5,23Z"/><path class="cls-3" d="M17,28a1,1,0,0,1-.7324-1.6807l13-14a1,1,0,1,1,1.4648,1.3613l-13,14A.9953.9953,0,0,1,17,28Z"/><path class="cls-4" d="M41.707,7.293l-6-6A1.848,1.848,0,0,0,34.8828,1H9A3.0033,3.0033,0,0,0,6,4V44a3.0033,3.0033,0,0,0,3,3H39a3.0033,3.0033,0,0,0,3-3V8.1372A1.8668,1.8668,0,0,0,41.707,7.293ZM36,4.4141,38.5859,7H37a1.001,1.001,0,0,1-1-1ZM40,44a1.001,1.001,0,0,1-1,1H9a1.001,1.001,0,0,1-1-1V4A1.001,1.001,0,0,1,9,3H34V6a3.0033,3.0033,0,0,0,3,3h3Z"/><path class="cls-4" d="M14,36H24a1,1,0,0,0,0-2H14a1,1,0,0,0,0,2Z"/><path class="cls-4" d="M34,39H14a1,1,0,0,0,0,2H34a1,1,0,0,0,0-2Z"/><path class="cls-4" d="M18.5,19A3.5,3.5,0,1,0,15,15.5,3.5042,3.5042,0,0,0,18.5,19Zm0-5A1.5,1.5,0,1,1,17,15.5,1.5016,1.5016,0,0,1,18.5,14Z"/><path class="cls-4" d="M26,24.5A3.5,3.5,0,1,0,29.5,21,3.5042,3.5042,0,0,0,26,24.5Zm5,0A1.5,1.5,0,1,1,29.5,23,1.5016,1.5016,0,0,1,31,24.5Z"/><path class="cls-4" d="M16.3193,27.7329a1,1,0,0,0,1.4131-.0522l13-14a1,1,0,1,0-1.4648-1.3613l-13,14A1.0006,1.0006,0,0,0,16.3193,27.7329Z"/></g></svg>