<?xml version="1.0" encoding="iso-8859-1"?>
<!-- Generator: Adobe Illustrator 19.0.0, SVG Export Plug-In . SVG Version: 6.00 Build 0)  -->
<svg version="1.1" id="Layer_1" xmlns="http://www.w3.org/2000/svg" xmlns:xlink="http://www.w3.org/1999/xlink" x="0px" y="0px"
	 viewBox="0 0 512 512" style="enable-background:new 0 0 512 512;" xml:space="preserve">
<path style="fill:#2BA5F7;" d="M480.54,299.751L480.54,299.751c-26.716-26.716-70.031-26.716-96.747,0l0,0
	c-26.716,26.716-26.716,70.031,0,96.747l48.374,48.374l48.374-48.374C507.256,369.782,507.256,326.467,480.54,299.751z"/>
<circle style="fill:#E6E6E6;" cx="432.163" cy="348.619" r="24.921"/>
<path style="fill:#F95428;" d="M128.204,87.129L128.204,87.129c-26.716-26.716-70.031-26.716-96.747,0l0,0
	c-26.716,26.716-26.716,70.031,0,96.747l48.374,48.374l48.374-48.374C154.919,157.16,154.919,113.845,128.204,87.129z"/>
<circle style="fill:#E6E6E6;" cx="79.831" cy="136.003" r="24.921"/>
<g>
	<path style="fill:#333333;" d="M79.83,243.708c-3.039,0-5.954-1.207-8.102-3.356l-48.373-48.374
		c-31.14-31.141-31.14-81.81,0-112.952c31.141-31.141,81.812-31.141,112.953,0c31.14,31.141,31.14,81.81,0,112.952l-48.375,48.374
		C85.784,242.5,82.869,243.708,79.83,243.708z M79.83,78.577c-14.585,0-29.168,5.551-40.27,16.654
		c-22.206,22.206-22.206,58.336,0,80.542l40.27,40.272l40.272-40.272c22.206-22.206,22.206-58.336,0-80.542
		C108.998,84.129,94.415,78.577,79.83,78.577z"/>
	<path style="fill:#333333;" d="M79.83,172.381c-20.06,0-36.38-16.319-36.38-36.38c0-20.06,16.319-36.38,36.38-36.38
		c6.329,0,11.459,5.13,11.459,11.459c0,6.329-5.13,11.459-11.459,11.459c-7.423,0-13.463,6.04-13.463,13.463
		c0,7.424,6.04,13.463,13.463,13.463c7.424,0,13.463-6.04,13.463-13.463c0-6.329,5.13-11.459,11.459-11.459
		s11.459,5.13,11.459,11.459C116.21,156.061,99.89,172.381,79.83,172.381z"/>
	<path style="fill:#333333;" d="M432.167,456.33c-2.932,0-5.866-1.118-8.102-3.356l-48.373-48.373
		c-31.141-31.141-31.141-81.81,0-112.952c15.085-15.085,35.143-23.393,56.476-23.393c21.334,0,41.391,8.308,56.476,23.393l0,0
		c31.14,31.141,31.14,81.81,0,112.952l-48.373,48.373C438.032,455.211,435.1,456.33,432.167,456.33z M432.166,291.172
		c-15.213,0-29.514,5.924-40.27,16.68c-22.206,22.206-22.206,58.336,0,80.542l40.272,40.27l40.27-40.27
		c22.206-22.206,22.206-58.336,0-80.542l0,0C461.682,297.096,447.38,291.172,432.166,291.172z"/>
	<path style="fill:#333333;" d="M432.167,385.003c-20.06,0-36.38-16.319-36.38-36.38c0-20.061,16.321-36.38,36.38-36.38
		c6.329,0,11.459,5.13,11.459,11.459s-5.13,11.459-11.459,11.459c-7.424,0-13.463,6.04-13.463,13.463
		c0,7.423,6.04,13.463,13.463,13.463s13.463-6.04,13.463-13.463c0-6.329,5.13-11.459,11.459-11.459
		c6.329,0,11.459,5.13,11.459,11.459C468.546,368.683,452.227,385.003,432.167,385.003z"/>
</g>
<path style="fill:#4D4D4D;" d="M386.208,456.33H235.312c-35.628,0-64.614-28.986-64.614-64.614s28.986-64.614,64.614-64.614h41.373
	c22.992,0,41.697-18.705,41.697-41.697c0-22.992-18.705-41.697-41.697-41.697H127.242c-6.329,0-11.459-5.13-11.459-11.459
	c0-6.329,5.13-11.459,11.459-11.459h149.443c35.628,0,64.614,28.986,64.614,64.614s-28.986,64.614-64.614,64.614h-41.373
	c-22.992,0-41.697,18.705-41.697,41.697c0,22.992,18.705,41.697,41.697,41.697h150.896c6.329,0,11.459,5.13,11.459,11.459
	C397.666,451.2,392.536,456.33,386.208,456.33z"/>
<g>
</g>
<g>
</g>
<g>
</g>
<g>
</g>
<g>
</g>
<g>
</g>
<g>
</g>
<g>
</g>
<g>
</g>
<g>
</g>
<g>
</g>
<g>
</g>
<g>
</g>
<g>
</g>
<g>
</g>
</svg>
