<svg xmlns="http://www.w3.org/2000/svg" viewBox="0 0 512 512"><g data-name="Roundtrip"><path d="m179.492 174.099-5.151-19.276a288.99 288.99 0 0 0-32.944 10.976l7.434 18.514a269.124 269.124 0 0 1 30.66-10.214zM119.615 198.141l-9.6-17.49a291.056 291.056 0 0 0-29.386 18.514l11.63 16.21a271.15 271.15 0 0 1 27.356-17.234zM29.544 246.078 44.71 259.04a268.13 268.13 0 0 1 22.457-23.262l-13.49-14.696a287.953 287.953 0 0 0-24.133 24.997zM460.131 238.048l-14.69 13.496a270.673 270.673 0 0 1 20.406 25.087L482.057 265a289.717 289.717 0 0 0-21.926-26.952zM396.351 209.623a267.993 267.993 0 0 1 25.815 19.471l12.955-15.172a286.303 286.303 0 0 0-27.751-20.928zM377.279 175.584a288.68 288.68 0 0 0-31.956-13.619l-6.697 18.793a267.522 267.522 0 0 1 29.735 12.672zM196.844 189.035l13.56.006 11.302-17.141 21.762.15-13.702 47.242v1.117a10.835 10.835 0 0 0 10.82 10.823h19.657l31.195-57.852 24.109.798c12.48 0 22.634-9.793 22.634-21.823a21.26 21.26 0 0 0-6.783-15.587 23.098 23.098 0 0 0-16.087-6.234h-.017l-24.062.805-30.983-57.456-19.69-.007a10.843 10.843 0 0 0-10.793 10.826v1.114l13.592 46.866-21.855.19-11.106-16.801-13.549.003a10.1 10.1 0 0 0-10.092 10.088v52.787a10.094 10.094 0 0 0 10.088 10.085zm5.61-56.516 10.66 16.126 51.099-.441-17.008-58.627h3.67l31.16 57.778 33.522-1.12a7.325 7.325 0 0 1 5.058 1.945 5.725 5.725 0 0 1 1.868 4.173c0 3.381-3.111 6.128-6.673 6.131l-33.57-1.11-31.367 58.16h-3.67l17.119-59.034-51.028-.356-10.846 16.436v-40.061zM287.936 265.985a178.884 178.884 0 0 0-39.683-4.485c-83.508 0-154.81 56.95-173.386 138.49a178.554 178.554 0 0 0-4.44 38.134h19.955a158.964 158.964 0 0 1 2.05-23.86c11.22 2.875 22.777 7.49 26.492 10.52-.173 1.287-.373 2.59-.576 3.903-.449 2.91-.934 6.129-1.134 9.437h20.017c.209-2.261.565-4.646.834-6.398.37-2.404.735-4.798.964-7.112 1.241-12.529-12.967-22.546-42.174-29.804a156.954 156.954 0 0 1 113.37-108.765 61.609 61.609 0 0 0-6.358 21.825c-.486 4.402-1.117 8.379-1.672 11.88-2.235 14.119-4.546 28.718 14.546 37.217a71.38 71.38 0 0 0 24.214 6.202 55.508 55.508 0 0 1 8.246 1.28c.967 3.242.479 11.162.282 14.327-.249 4.02-.502 8.123.725 11.474a104.047 104.047 0 0 0 23.086 47.867h30.02c-28.86-18.842-33.458-51.055-33.648-52.471l-.409-3.285c.04-.778.09-1.63.136-2.358.642-10.384 1.84-29.722-12.964-34.244a67.402 67.402 0 0 0-13.387-2.427c-5.558-.585-10.357-1.09-18.177-4.58-5.118-2.28-5.118-2.28-2.966-15.88.589-3.72 1.257-7.942 1.792-12.81a47.897 47.897 0 0 1 12.539-28.143c3.974-.296 7.98-.476 12.023-.476a159.052 159.052 0 0 1 35.255 3.983A158.142 158.142 0 0 1 406.423 434.73c-1.66 1.087-3.724 2.235-5.945 3.388h25.904a177.915 177.915 0 0 0-138.446-172.132z"/></g></svg>